<svg width="576" height="745" viewBox="0 0 576 745" fill="none" xmlns="http://www.w3.org/2000/svg">
  <path fill-rule="evenodd" clip-rule="evenodd" d="M128.474 495.216C127.155 496.93 125.939 497.913 124.899 498.336C124.393 498.541 124.117 499.187 124.322 499.692C124.527 500.198 125.173 500.474 125.679 500.269C126.981 499.741 128.204 498.746 129.433 497.312C131.364 499.558 133.335 500.745 135.396 500.676C137.375 500.609 139.103 499.39 140.645 497.426C142.183 499.39 143.914 500.609 145.894 500.676C147.958 500.745 149.924 499.558 151.858 497.312C152.862 498.482 153.869 499.353 154.913 499.928C156.244 500.661 157.659 500.877 158.992 500.513C159.565 500.42 159.981 499.778 159.831 499.217C159.68 498.657 158.998 498.309 158.456 498.514C157.649 498.734 156.861 498.636 155.904 498.108C154.982 497.6 153.936 496.652 152.817 495.199C152.22 494.36 151.434 494.488 150.948 495.151C148.986 497.712 147.308 498.64 145.959 498.596C144.619 498.551 143.152 497.519 141.621 495.232C141.036 494.395 140.209 494.45 139.671 495.264C138.137 497.533 136.662 498.551 135.332 498.595C133.995 498.64 132.336 497.72 130.392 495.199C129.864 494.417 129.049 494.45 128.474 495.215L128.474 495.216Z" fill="#00AFCA"/>
  <path fill-rule="evenodd" clip-rule="evenodd" d="M124.688 503.714C122.91 505.496 121.255 506.546 119.748 507.013C119.199 507.149 118.836 507.793 119.004 508.332C119.173 508.872 119.837 509.195 120.365 508.996C122.084 508.464 123.796 507.407 125.516 505.811C128.129 508.228 130.741 509.451 133.316 509.386C135.823 509.321 138.13 508.043 140.222 505.892C142.313 508.037 144.608 509.323 147.112 509.386C149.688 509.451 152.3 508.228 154.912 505.811C158.039 508.687 161.187 509.853 164.175 509.207C164.727 509.113 165.136 508.51 165.018 507.962C164.9 507.413 164.278 507.033 163.736 507.176C161.378 507.686 158.778 506.751 155.708 503.682C155.172 503.164 154.666 503.17 154.083 503.731C151.497 506.316 149.218 507.359 147.177 507.306C145.144 507.253 143.131 506.115 141.099 503.796C140.567 503.134 139.897 503.172 139.312 503.812C137.287 506.119 135.296 507.253 133.267 507.306C131.234 507.359 128.948 506.325 126.377 503.763C125.741 503.146 125.223 503.172 124.687 503.714L124.688 503.714Z" fill="#00AFCA"/>
  <path fill-rule="evenodd" clip-rule="evenodd" d="M536.474 423.216C535.155 424.93 533.939 425.913 532.899 426.336C532.393 426.541 532.117 427.187 532.322 427.692C532.527 428.198 533.173 428.474 533.679 428.269C534.981 427.741 536.204 426.746 537.433 425.312C539.364 427.558 541.335 428.745 543.396 428.676C545.375 428.609 547.103 427.39 548.645 425.426C550.183 427.39 551.914 428.609 553.894 428.676C555.958 428.745 557.924 427.558 559.858 425.312C560.862 426.482 561.869 427.353 562.913 427.928C564.244 428.661 565.659 428.877 566.992 428.513C567.565 428.42 567.981 427.778 567.831 427.217C567.68 426.657 566.998 426.309 566.456 426.514C565.649 426.734 564.861 426.636 563.904 426.108C562.982 425.6 561.936 424.652 560.817 423.199C560.22 422.36 559.434 422.488 558.948 423.151C556.986 425.712 555.308 426.64 553.959 426.596C552.619 426.551 551.152 425.519 549.621 423.232C549.036 422.395 548.209 422.45 547.671 423.264C546.137 425.533 544.662 426.551 543.332 426.595C541.995 426.64 540.336 425.72 538.392 423.199C537.864 422.417 537.049 422.45 536.474 423.215L536.474 423.216Z" fill="#00AFCA"/>
  <path fill-rule="evenodd" clip-rule="evenodd" d="M532.688 431.714C530.91 433.496 529.255 434.546 527.748 435.013C527.199 435.149 526.836 435.793 527.004 436.332C527.173 436.872 527.837 437.195 528.365 436.996C530.084 436.464 531.796 435.407 533.516 433.811C536.129 436.228 538.741 437.451 541.316 437.386C543.823 437.321 546.13 436.043 548.222 433.892C550.313 436.037 552.608 437.323 555.112 437.386C557.688 437.451 560.3 436.228 562.912 433.811C566.039 436.687 569.187 437.853 572.175 437.207C572.727 437.113 573.136 436.51 573.018 435.962C572.9 435.413 572.278 435.033 571.736 435.176C569.378 435.686 566.778 434.751 563.708 431.682C563.172 431.164 562.666 431.17 562.083 431.731C559.497 434.316 557.218 435.359 555.177 435.306C553.144 435.253 551.131 434.115 549.099 431.796C548.567 431.134 547.897 431.172 547.312 431.812C545.287 434.119 543.296 435.253 541.267 435.306C539.234 435.359 536.948 434.325 534.377 431.763C533.741 431.146 533.223 431.172 532.687 431.714L532.688 431.714Z" fill="#00AFCA"/>
  <path fill-rule="evenodd" clip-rule="evenodd" d="M425.474 237.216C424.155 238.93 422.939 239.913 421.899 240.336C421.393 240.541 421.117 241.187 421.322 241.692C421.527 242.198 422.173 242.474 422.679 242.269C423.981 241.741 425.204 240.746 426.433 239.312C428.364 241.558 430.335 242.745 432.396 242.676C434.375 242.609 436.103 241.39 437.645 239.426C439.183 241.39 440.914 242.609 442.894 242.676C444.958 242.745 446.924 241.558 448.858 239.312C449.862 240.482 450.869 241.353 451.913 241.928C453.244 242.661 454.659 242.877 455.992 242.513C456.565 242.42 456.981 241.778 456.831 241.217C456.68 240.657 455.998 240.309 455.456 240.514C454.649 240.734 453.861 240.636 452.904 240.108C451.982 239.6 450.936 238.652 449.817 237.199C449.22 236.36 448.434 236.488 447.948 237.151C445.986 239.712 444.308 240.64 442.959 240.596C441.619 240.551 440.152 239.519 438.621 237.232C438.036 236.395 437.209 236.45 436.671 237.264C435.137 239.533 433.662 240.551 432.332 240.595C430.995 240.64 429.336 239.72 427.392 237.199C426.864 236.417 426.049 236.45 425.474 237.215L425.474 237.216Z" fill="#00AFCA"/>
  <path fill-rule="evenodd" clip-rule="evenodd" d="M421.688 245.714C419.91 247.496 418.255 248.546 416.748 249.013C416.199 249.149 415.836 249.793 416.004 250.332C416.173 250.872 416.837 251.195 417.365 250.996C419.084 250.464 420.796 249.407 422.516 247.811C425.129 250.228 427.741 251.451 430.316 251.386C432.823 251.321 435.13 250.043 437.222 247.892C439.313 250.037 441.608 251.323 444.112 251.386C446.688 251.451 449.3 250.228 451.912 247.811C455.039 250.687 458.187 251.853 461.175 251.207C461.727 251.114 462.136 250.51 462.018 249.962C461.9 249.413 461.278 249.033 460.736 249.176C458.378 249.686 455.778 248.751 452.708 245.682C452.172 245.164 451.666 245.17 451.083 245.731C448.497 248.316 446.218 249.359 444.177 249.306C442.144 249.253 440.131 248.115 438.099 245.796C437.567 245.134 436.897 245.172 436.312 245.812C434.287 248.119 432.296 249.253 430.267 249.306C428.234 249.359 425.948 248.325 423.377 245.763C422.741 245.146 422.223 245.172 421.687 245.714L421.688 245.714Z" fill="#00AFCA"/>
  <path fill-rule="evenodd" clip-rule="evenodd" d="M12.4738 172.216C11.1555 173.93 9.93878 174.913 8.89878 175.336C8.393 175.541 8.11675 176.187 8.32189 176.692C8.52705 177.198 9.17298 177.474 9.67878 177.269C10.9808 176.741 12.2036 175.746 13.4326 174.312C15.3643 176.558 17.3346 177.745 19.3964 177.676C21.3749 177.609 23.1035 176.39 24.6453 174.426C26.183 176.39 27.9136 177.609 29.8942 177.676C31.958 177.745 33.9242 176.558 35.8581 174.312C36.8615 175.482 37.869 176.353 38.9131 176.928C40.2436 177.661 41.6593 177.877 42.9919 177.513C43.5647 177.42 43.9811 176.778 43.8308 176.217C43.6805 175.657 42.9979 175.309 42.4556 175.514C41.6492 175.734 40.8611 175.636 39.9044 175.108C38.9822 174.6 37.9361 173.652 36.8169 172.199C36.2197 171.36 35.4336 171.488 34.9481 172.151C32.986 174.712 31.3081 175.64 29.9594 175.596C28.6187 175.551 27.1522 174.519 25.6206 172.232C25.0356 171.395 24.2089 171.45 23.6706 172.264C22.137 174.533 20.6623 175.551 19.3318 175.595C17.9952 175.64 16.3357 174.72 14.3918 172.199C13.8637 171.417 13.0492 171.45 12.4743 172.215L12.4738 172.216Z" fill="#00AFCA"/>
  <path fill-rule="evenodd" clip-rule="evenodd" d="M8.68765 180.714C6.91029 182.496 5.25481 183.546 3.74764 184.013C3.1992 184.149 2.83562 184.793 3.0042 185.332C3.17279 185.872 3.83703 186.195 4.36514 185.996C6.08359 185.464 7.79595 184.407 9.51637 182.811C12.1285 185.228 14.7408 186.451 17.3164 186.386C19.8229 186.321 22.1304 185.043 24.2225 182.892C26.3126 185.037 28.608 186.323 31.1125 186.386C33.6881 186.451 36.3003 185.228 38.9125 182.811C42.0386 185.687 45.1868 186.853 48.1747 186.207C48.7272 186.113 49.1355 185.51 49.0177 184.962C48.8999 184.413 48.2783 184.033 47.736 184.176C45.3777 184.686 42.7777 183.751 39.7082 180.682C39.172 180.164 38.6662 180.17 38.0832 180.731C35.4974 183.316 33.2184 184.359 31.1771 184.306C29.1438 184.253 27.1309 183.115 25.0994 180.796C24.5672 180.134 23.8969 180.172 23.3119 180.812C21.2867 183.119 19.2961 184.253 17.2669 184.306C15.2336 184.359 12.9484 183.325 10.3769 180.763C9.74106 180.146 9.22309 180.172 8.68686 180.714L8.68765 180.714Z" fill="#00AFCA"/>
  <path fill-rule="evenodd" clip-rule="evenodd" d="M398.474 698.216C397.155 699.93 395.939 700.913 394.899 701.336C394.393 701.541 394.117 702.187 394.322 702.692C394.527 703.198 395.173 703.474 395.679 703.269C396.981 702.741 398.204 701.746 399.433 700.312C401.364 702.558 403.335 703.745 405.396 703.676C407.375 703.609 409.103 702.39 410.645 700.426C412.183 702.39 413.914 703.609 415.894 703.676C417.958 703.745 419.924 702.558 421.858 700.312C422.862 701.482 423.869 702.353 424.913 702.928C426.244 703.661 427.659 703.877 428.992 703.513C429.565 703.42 429.981 702.778 429.831 702.217C429.68 701.657 428.998 701.309 428.456 701.514C427.649 701.734 426.861 701.636 425.904 701.108C424.982 700.6 423.936 699.652 422.817 698.199C422.22 697.36 421.434 697.488 420.948 698.151C418.986 700.712 417.308 701.64 415.959 701.596C414.619 701.551 413.152 700.519 411.621 698.232C411.036 697.395 410.209 697.45 409.671 698.264C408.137 700.533 406.662 701.551 405.332 701.595C403.995 701.64 402.336 700.72 400.392 698.199C399.864 697.417 399.049 697.45 398.474 698.215L398.474 698.216Z" fill="#00AFCA"/>
  <path fill-rule="evenodd" clip-rule="evenodd" d="M394.688 706.714C392.91 708.496 391.255 709.546 389.748 710.013C389.199 710.149 388.836 710.793 389.004 711.332C389.173 711.872 389.837 712.195 390.365 711.996C392.084 711.464 393.796 710.407 395.516 708.811C398.129 711.228 400.741 712.451 403.316 712.386C405.823 712.321 408.13 711.043 410.222 708.892C412.313 711.037 414.608 712.323 417.112 712.386C419.688 712.451 422.3 711.228 424.912 708.811C428.039 711.687 431.187 712.853 434.175 712.207C434.727 712.113 435.136 711.51 435.018 710.962C434.9 710.413 434.278 710.033 433.736 710.176C431.378 710.686 428.778 709.751 425.708 706.682C425.172 706.164 424.666 706.17 424.083 706.731C421.497 709.316 419.218 710.359 417.177 710.306C415.144 710.253 413.131 709.115 411.099 706.796C410.567 706.134 409.897 706.172 409.312 706.812C407.287 709.119 405.296 710.253 403.267 710.306C401.234 710.359 398.948 709.325 396.377 706.763C395.741 706.146 395.223 706.172 394.687 706.714L394.688 706.714Z" fill="#00AFCA"/>
  </svg>
  