<svg width="264" height="205" viewBox="0 0 264 205" fill="none" xmlns="http://www.w3.org/2000/svg">
  <path opacity="0.5" d="M6.94702 204.653C6.94702 204.653 43.6314 165.189 51.7306 164.713C59.8298 164.238 101.755 189.913 108.425 190.387C115.096 190.862 154.639 170.417 163.691 170.894C172.743 171.368 202.281 189.436 208.952 190.864C215.622 192.289 234.202 183.732 240.873 184.206C247.543 184.681 263.265 204.651 263.265 204.651H6.94702V204.653Z" fill="#00AFCA"/>
  <path d="M110.551 204.235C110.455 204.235 110.358 204.211 110.269 204.158C110.005 204.002 109.918 203.663 110.074 203.399L116.96 191.745C117.116 191.481 117.456 191.394 117.72 191.549C117.984 191.705 118.072 192.044 117.916 192.308L111.028 203.963C110.925 204.138 110.739 204.235 110.549 204.235H110.551Z" fill="#372E3E"/>
  <path d="M151.474 204.335C151.386 204.335 151.297 204.313 151.214 204.269C150.944 204.125 150.841 203.79 150.986 203.521L158.372 189.675C158.516 189.405 158.852 189.302 159.122 189.446C159.392 189.59 159.495 189.925 159.35 190.195L151.964 204.041C151.864 204.228 151.673 204.335 151.474 204.335Z" fill="#372E3E"/>
  <path d="M187.551 204.235C187.466 204.235 187.378 204.215 187.297 204.174C187.024 204.034 186.917 203.699 187.058 203.428L195.396 187.291C195.536 187.018 195.872 186.911 196.143 187.052C196.416 187.192 196.523 187.527 196.382 187.798L188.044 203.935C187.946 204.127 187.751 204.236 187.55 204.236L187.551 204.235Z" fill="#372E3E"/>
  <path d="M211.338 145.653C205.067 145.653 200.161 145.32 197.442 143.31C195.761 142.067 195.043 140.323 195.476 138.528C196.015 136.292 198.224 134.427 200.847 133.991C205.031 133.295 209.224 135.226 211.92 137.677C212.103 135.948 212.953 133.094 216.472 132.136C220.568 131.021 224.706 134.98 226.23 136.65C226.456 136.191 226.803 135.606 227.312 135.019C228.303 133.87 230.122 132.484 233.148 132.404C237.967 132.28 240.943 135.519 242.029 138.334C242.887 140.561 242.656 142.673 241.437 143.716C239.53 145.347 230.663 145.573 221.365 145.573C219.53 145.573 217.742 145.594 216.014 145.614C214.385 145.634 212.823 145.653 211.338 145.653ZM202.57 134.959C202.057 134.959 201.541 134.999 201.028 135.084C198.832 135.449 196.992 136.972 196.555 138.789C196.226 140.15 196.776 141.441 198.102 142.42C201.165 144.684 208.04 144.603 216.001 144.508C217.732 144.488 219.522 144.466 221.365 144.466C226.149 144.466 238.855 144.466 240.714 142.876C241.559 142.155 241.67 140.49 240.993 138.734C240.037 136.256 237.415 133.402 233.178 133.513C228.205 133.644 226.984 137.678 226.936 137.849C226.879 138.049 226.714 138.2 226.51 138.24C226.306 138.281 226.097 138.204 225.967 138.043C225.919 137.983 221.101 132.027 216.765 133.207C212.545 134.356 212.978 138.742 212.999 138.928C213.025 139.168 212.895 139.396 212.675 139.494C212.455 139.593 212.196 139.539 212.035 139.36C210.006 137.11 206.334 134.96 202.571 134.96L202.57 134.959Z" fill="#00AFCA"/>
  <path d="M9.03278 119.45C7.77554 119.45 6.46543 119.439 5.11247 119.412C2.32939 119.355 0.443526 118.063 0.0677822 115.957C-0.163665 114.658 0.202079 113.211 1.09644 111.882C2.01508 110.516 3.42234 109.414 5.05961 108.775C7.54552 107.807 10.1172 108.259 12.4973 110.081C13.416 110.786 14.1346 111.56 14.6161 112.149C14.8461 111.471 15.2218 110.562 15.8133 109.614C17.3777 107.106 19.7108 105.529 22.561 105.055C25.4384 104.576 28.1643 105.578 30.4473 107.951C31.2145 108.748 31.8075 109.569 32.2289 110.237C32.8061 108.601 34.2434 107.061 36.0464 106.294C38.4137 105.288 40.8653 105.841 42.7712 107.814C46.6001 111.776 46.0972 118.093 46.0743 118.359C46.05 118.64 45.8171 118.859 45.5343 118.866C45.3657 118.87 28.5958 119.276 20.8723 119.276C19.7736 119.276 18.3935 119.308 16.7948 119.343C14.5532 119.393 11.9302 119.452 9.03278 119.452V119.45ZM7.64839 109.383C6.92118 109.383 6.19113 109.524 5.4625 109.807C2.32368 111.029 0.810698 113.795 1.16073 115.763C1.44075 117.331 2.88801 118.258 5.13533 118.304C9.57854 118.394 13.566 118.305 16.7691 118.234C18.375 118.198 19.7608 118.167 20.8723 118.167C27.8157 118.167 42.0926 117.838 44.9885 117.769C45.0199 116.251 44.8628 111.574 41.9711 108.583C39.8238 106.36 37.6093 106.833 36.4807 107.314C34.4991 108.156 32.999 110.157 33.0661 111.868C33.0761 112.133 32.8961 112.368 32.6375 112.428C32.3775 112.488 32.1132 112.357 32.0046 112.113C31.9975 112.096 31.1903 110.314 29.6244 108.695C27.5828 106.585 25.2684 105.728 22.7439 106.147C20.1951 106.571 18.1878 107.924 16.7763 110.165C15.7047 111.869 15.3961 113.475 15.3919 113.49C15.3504 113.714 15.1747 113.891 14.9504 113.934C14.7261 113.975 14.4989 113.878 14.3761 113.686C14.3675 113.671 13.4003 112.163 11.7959 110.941C10.4315 109.902 9.04278 109.381 7.64696 109.381L7.64839 109.383Z" fill="#00AFCA"/>
  <path d="M196.349 188.204C194.812 188.204 193.395 187.847 192.123 187.128C190.359 186.13 189.057 184.161 188.726 181.988C188.413 179.932 189.004 177.986 190.394 176.506C193.68 173.008 198.342 173.138 200.521 173.436C199.727 171.766 198.702 168.43 201.145 165.381C203.235 162.774 205.644 162.504 207.297 162.737C208.196 162.863 208.963 163.147 209.509 163.4C209.596 162.272 209.989 161.14 210.667 160.08C211.453 158.855 212.583 157.795 213.851 157.097C215.884 155.978 217.951 155.947 219.38 157.016C222.918 159.665 221.477 166.612 215.706 174.713C212.533 179.168 208.429 183.11 204.446 185.528C201.517 187.306 198.782 188.202 196.349 188.203V188.204ZM198.538 174.424C196.362 174.424 193.395 174.933 191.204 177.264C190.053 178.49 189.562 180.109 189.823 181.822C190.1 183.639 191.217 185.344 192.67 186.166C196.349 188.246 200.79 186.454 203.868 184.586C207.727 182.243 211.712 178.412 214.801 174.075C220.93 165.47 221.183 159.752 218.712 157.904C217.642 157.105 216.026 157.166 214.386 158.068C212.413 159.155 210.392 161.565 210.615 164.289C210.632 164.503 210.525 164.707 210.34 164.814C210.155 164.921 209.925 164.912 209.747 164.791C209.572 164.671 205.366 161.891 202.011 166.074C199.124 169.677 201.911 173.705 202.031 173.875C202.165 174.065 202.167 174.318 202.034 174.511C201.901 174.703 201.662 174.79 201.438 174.732C201.411 174.725 200.207 174.424 198.537 174.424H198.538Z" fill="#0FB9D3"/>
  <path d="M159.068 190.523C157.822 190.523 156.606 190.225 155.417 189.632C154.229 189.039 153.317 187.895 152.93 186.499C152.454 184.787 152.799 182.895 153.9 181.168C155.566 178.556 158.48 178.284 159.992 178.338C159.773 177.726 159.518 176.841 159.406 175.808C159.126 173.206 159.908 170.925 161.666 169.214C164.281 166.67 166.853 166.405 168.55 166.63C169.247 166.723 169.856 166.903 170.344 167.092C169.673 164.871 169.766 162.772 171.589 160.316C172.91 158.535 175.353 157.437 177.396 157.705C179.054 157.922 180.345 158.999 181.035 160.74C181.857 162.815 181.221 166.019 179.146 170.263C177.082 174.488 174.146 178.616 172.579 180.7C167.64 187.272 163.185 190.52 159.068 190.52V190.523ZM159.708 179.448C158.379 179.448 156.109 179.769 154.837 181.764C153.909 183.221 153.611 184.798 154.002 186.204C154.304 187.298 155.003 188.186 155.916 188.641C160.473 190.915 165.634 188.1 171.693 180.037C173.236 177.984 176.126 173.922 178.151 169.78C180.056 165.882 180.698 162.898 180.005 161.15C179.462 159.781 178.511 158.97 177.255 158.804C175.612 158.587 173.563 159.523 172.484 160.976C170.596 163.521 170.823 165.481 171.853 168.008C171.946 168.236 171.877 168.498 171.683 168.651C171.489 168.803 171.217 168.81 171.016 168.666C170.847 168.548 166.791 165.778 162.444 170.007C158.786 173.566 161.326 178.671 161.354 178.723C161.449 178.911 161.431 179.136 161.304 179.304C161.178 179.474 160.966 179.557 160.759 179.518C160.746 179.516 160.331 179.446 159.709 179.446L159.708 179.448Z" fill="#0FB9D3"/>
  <path d="M118.053 192.48C111.978 192.48 110.23 189.341 109.758 187.979C108.807 185.237 110.032 181.962 112.808 179.832C115.04 178.118 118.19 177.355 121.92 177.626C123.471 177.739 124.811 178.003 125.708 178.221C125.196 176.952 124.594 174.82 125.269 172.914C125.756 171.537 126.815 170.521 128.415 169.894C130.071 169.245 131.648 169.475 132.857 170.544C134.726 172.198 135.404 175.522 134.546 178.817C133.75 181.874 131.883 185.126 129.554 187.519C126.437 190.72 122.526 192.435 118.244 192.48C118.182 192.48 118.117 192.48 118.054 192.48H118.053ZM120.453 178.687C118.116 178.687 115.523 179.145 113.486 180.709C111.09 182.548 110.012 185.324 110.807 187.616C111.648 190.042 114.353 191.405 118.232 191.37C122.21 191.327 125.849 189.727 128.757 186.744C130.958 184.484 132.721 181.416 133.471 178.536C134.216 175.679 133.66 172.733 132.12 171.371C131.228 170.581 130.087 170.427 128.821 170.924C127.534 171.428 126.692 172.221 126.317 173.282C125.461 175.7 127.187 178.77 127.204 178.8C127.318 178.999 127.297 179.247 127.151 179.426C127.005 179.604 126.765 179.672 126.547 179.6C126.499 179.584 123.726 178.686 120.455 178.686L120.453 178.687Z" fill="#0FB9D3"/>
  <path d="M66.2759 56.5305H46.913C46.6058 56.5305 46.3586 56.2824 46.3586 55.9773C46.3586 55.6722 46.6072 55.4241 46.913 55.4241H66.2759C66.5831 55.4241 66.8303 55.6722 66.8303 55.9773C66.8303 56.2824 66.5817 56.5305 66.2759 56.5305Z" fill="#00AFCA"/>
  <path d="M69.8277 31.9566H50.4647C50.1576 31.9566 49.9104 31.7085 49.9104 31.4034C49.9104 31.0982 50.159 30.8502 50.4647 30.8502H69.8277C70.1349 30.8502 70.382 31.0982 70.382 31.4034C70.382 31.7085 70.1334 31.9566 69.8277 31.9566Z" fill="#00AFCA"/>
  <path d="M75.8581 18.5783H56.4951C56.188 18.5783 55.9408 18.3302 55.9408 18.025C55.9408 17.7199 56.1894 17.4718 56.4951 17.4718H75.8581C76.1653 17.4718 76.4124 17.7199 76.4124 18.025C76.4124 18.3302 76.1638 18.5783 75.8581 18.5783Z" fill="#00AFCA"/>
  <path d="M82.7944 37.7041H63.4315C63.1243 37.7041 62.8771 37.456 62.8771 37.1508C62.8771 36.8457 63.1257 36.5976 63.4315 36.5976H82.7944C83.1016 36.5976 83.3488 36.8457 83.3488 37.1508C83.3488 37.456 83.1002 37.7041 82.7944 37.7041Z" fill="#00AFCA"/>
  <path d="M54.9065 72.2986H35.5435C35.2364 72.2986 34.9892 72.0505 34.9892 71.7454C34.9892 71.4403 35.2378 71.1922 35.5435 71.1922H54.9065C55.2137 71.1922 55.4608 71.4403 55.4608 71.7454C55.4608 72.0505 55.2122 72.2986 54.9065 72.2986Z" fill="#00AFCA"/>
  <path d="M73.1622 82.1794H53.7993C53.4921 82.1794 53.2449 81.9313 53.2449 81.6262C53.2449 81.3211 53.4935 81.073 53.7993 81.073H73.1622C73.4694 81.073 73.7166 81.3211 73.7166 81.6262C73.7166 81.9313 73.468 82.1794 73.1622 82.1794Z" fill="#00AFCA"/>
  <path d="M144.879 89.3456C151.333 90.2995 156.912 91.0138 156.912 91.0138L154.572 92.5095C156.11 98.257 163.382 108.869 168.128 112.381C170.77 111.129 173.197 109.956 174.923 109.07C180.664 106.129 193.175 99.6058 193.336 89.9017C193.495 80.1976 184.327 74.4715 175.243 71.0524C168.816 68.6342 152.966 65.295 144.252 63.5512C145.459 68.4774 145.935 77.4957 138.45 88.1693C140.37 88.5814 142.595 89.0091 144.881 89.3456H144.879Z" fill="#F09060"/>
  <path opacity="0.4" d="M189.442 79.824C191.882 82.5873 193.399 85.9066 193.333 89.9031C193.288 92.6093 192.282 95.0674 190.73 97.2703C188.113 96.027 186.748 93.0157 186.681 88.2691C186.624 84.2027 187.551 81.3796 189.44 79.8255L189.442 79.824Z" fill="#F44C44"/>
  <path d="M107.482 82.3106C111.001 85.4645 119.183 91.0395 128.432 92.7647C130.816 89.2059 132.444 86.7192 132.444 86.7192C132.444 86.7192 134.939 87.4193 138.448 88.1693C145.932 77.4956 145.458 68.4774 144.249 63.5512C140.648 62.8297 138.265 62.382 138.265 62.382C138.265 62.382 139.778 58.6435 140.415 57.2947C140.429 57.2591 140.448 57.2263 140.469 57.1906C138.043 54.8338 132.353 52.0135 128.577 51.6727C127.235 53.8072 125.075 57.0509 123.839 57.8508C122.483 58.7262 117.452 59.4791 113.478 64.2113C108.535 70.0985 110.211 78.5294 110.211 78.5294C110.211 78.5294 109.244 79.9537 107.482 82.3106Z" fill="#372E3E"/>
  <path d="M149.241 32.9547C151.333 33.4324 154.979 35.7579 159.522 38.0848C164.065 40.4118 178.171 44.8845 178.171 44.8845C178.171 44.8845 176.736 37.5473 175.78 33.431C174.825 29.3146 173.867 25.6161 173.867 25.6161C173.867 25.6161 171.477 23.5886 169.863 20.9038C168.248 18.219 167.95 15.6539 167.95 15.6539C167.95 15.6539 166.635 14.6402 166.455 12.6711C166.275 10.7021 167.591 9.98631 167.591 9.98631C167.591 9.98631 167.353 8.67456 168.07 7.77915C168.787 6.88374 169.743 6.82528 169.743 6.82528C169.743 6.82528 170.101 5.45365 171.177 5.09577C172.253 4.73789 173.389 5.27542 173.389 5.27542C173.389 5.27542 174.465 4.02213 176.438 4.38001C178.411 4.73789 181.698 6.70694 183.85 10.5238C186.001 14.3422 188.511 23.5273 190.126 29.2548C191.74 34.9808 194.13 44.7648 193.473 50.3112C192.816 55.859 189.17 60.7496 184.507 62.1811C179.845 63.6126 173.09 61.8831 168.19 60.2719C163.288 58.6608 147.21 51.2651 144.759 49.8335L149.243 32.9519L149.241 32.9547Z" fill="#F09060"/>
  <path opacity="0.4" d="M179.915 62.7044C180.065 60.8366 181.565 59.2839 184.414 58.0791C187.021 56.9769 189.053 56.8871 190.49 57.7939C188.914 59.8884 186.837 61.4682 184.507 62.184C183.127 62.6074 181.561 62.75 179.915 62.7044Z" fill="#F44C44"/>
  <path d="M173.21 17.3321C173.119 17.3321 173.039 17.2636 173.027 17.1695C173.014 17.0683 173.087 16.9756 173.189 16.9642C175.039 16.7375 177.478 16.0132 178.559 15.0693C179.638 14.1268 179.875 12.6711 179.418 11.9026C179.011 11.2167 178.219 11.0171 176.899 10.8888C175.688 10.7705 172.487 11.0186 170.694 11.914C168.551 12.9833 168.194 15.0622 168.136 15.6738C168.126 15.7751 168.034 15.8492 167.934 15.8407C167.833 15.8307 167.758 15.7408 167.767 15.6396C167.83 14.9809 168.216 12.7395 170.529 11.5846C172.412 10.645 175.65 10.3969 176.935 10.5224C178.149 10.6407 179.199 10.8118 179.736 11.7158C180.266 12.6083 180.059 14.2509 178.802 15.3488C177.612 16.3882 175.082 17.1054 173.234 17.3321C173.227 17.3321 173.219 17.3321 173.212 17.3321H173.21Z" fill="#EA5A3D"/>
  <path d="M177.806 13.2514C176.936 13.2514 176.035 13.0603 175.27 12.6839C174.398 12.2547 173.836 11.6402 173.686 10.953C173.665 10.8532 173.727 10.7548 173.827 10.7334C173.927 10.712 174.026 10.7747 174.047 10.8746C174.172 11.4492 174.665 11.9739 175.433 12.3517C176.748 12.999 178.492 13.0618 179.675 12.5057C179.768 12.4615 179.878 12.5014 179.921 12.5941C179.965 12.6868 179.925 12.7966 179.832 12.8393C179.248 13.1145 178.538 13.25 177.805 13.25L177.806 13.2514Z" fill="#EA5A3D"/>
  <path d="M172.523 11.1882C172.447 11.1882 172.377 11.1426 172.35 11.0685C171.597 9.05521 172.4 5.80435 173.277 5.13137C173.359 5.06864 173.475 5.08432 173.537 5.16559C173.6 5.24686 173.585 5.36235 173.503 5.42509C172.807 5.95977 171.962 8.97536 172.697 10.9401C172.733 11.0357 172.684 11.1426 172.589 11.1782C172.567 11.1868 172.546 11.1897 172.524 11.1897L172.523 11.1882Z" fill="#EA5A3D"/>
  <path d="M170.999 11.636C170.97 11.636 170.941 11.6288 170.914 11.616C169.44 10.8646 168.991 7.95022 169.577 6.74826C169.621 6.65701 169.733 6.61851 169.824 6.66271C169.916 6.70691 169.954 6.81813 169.91 6.90938C169.394 7.96876 169.796 10.6308 171.083 11.2866C171.174 11.3337 171.21 11.4449 171.163 11.5347C171.13 11.5989 171.066 11.636 170.999 11.636Z" fill="#EA5A3D"/>
  <path d="M169.773 12.3816C169.76 12.3816 169.747 12.3816 169.734 12.3774C169.157 12.2562 167.77 11.4976 167.411 10.0333C167.387 9.93494 167.448 9.83371 167.547 9.80947C167.647 9.78523 167.747 9.84654 167.771 9.94492C168.071 11.1683 169.247 11.8969 169.811 12.0152C169.911 12.0366 169.976 12.1335 169.954 12.2334C169.936 12.3203 169.858 12.3802 169.773 12.3802V12.3816Z" fill="#EA5A3D"/>
  <path d="M179.815 13.3055C179.759 13.3055 179.705 13.2812 179.668 13.2342C179.605 13.1529 179.621 13.0374 179.701 12.9747C180.131 12.6439 180.409 12.0222 180.446 11.3107C180.491 10.461 180.184 9.63826 179.626 9.10786C178.472 8.01283 176.343 8.05561 176.322 8.05561C176.226 8.06131 176.135 7.97861 176.132 7.87596C176.129 7.77472 176.209 7.68917 176.312 7.68632C176.405 7.68347 178.615 7.63927 179.881 8.84123C180.515 9.44435 180.865 10.374 180.815 11.3307C180.772 12.1477 180.441 12.8706 179.926 13.267C179.892 13.2926 179.854 13.3055 179.814 13.3055H179.815Z" fill="#EA5A3D"/>
  <path d="M177.333 8.11558C177.242 8.11558 177.162 8.04714 177.151 7.95303C177.149 7.93878 176.971 6.52009 176.605 5.8742C176.555 5.7858 176.586 5.67316 176.675 5.62325C176.763 5.57335 176.876 5.60472 176.926 5.69312C177.328 6.40317 177.509 7.84752 177.516 7.90883C177.529 8.01007 177.456 8.10274 177.355 8.11415C177.348 8.11415 177.339 8.11415 177.332 8.11415L177.333 8.11558Z" fill="#EA5A3D"/>
  <path d="M176.109 10.8004C176.089 10.8004 176.068 10.7975 176.048 10.789C175.952 10.7547 175.9 10.6492 175.935 10.5537C176.012 10.3384 176.189 10.1645 176.463 10.039C177.476 9.57132 179.641 9.82939 180.628 10.2044C180.724 10.24 180.771 10.347 180.735 10.4425C180.699 10.538 180.592 10.5865 180.496 10.5494C179.446 10.1502 177.451 9.99051 176.619 10.3741C176.439 10.4567 176.326 10.5594 176.285 10.6778C176.258 10.7533 176.186 10.8004 176.11 10.8004H176.109Z" fill="#EA5A3D"/>
  <path d="M177.155 22.0743C177.102 22.0743 177.05 22.0515 177.013 22.0087C176.948 21.9303 176.958 21.8148 177.036 21.7492C178.292 20.6913 178.583 19.4936 178.606 18.6737C178.639 17.4946 178.153 16.4965 177.656 16.0289C177.582 15.959 177.579 15.8421 177.649 15.7679C177.719 15.6938 177.836 15.6909 177.911 15.7608C178.466 16.2841 179.012 17.3919 178.976 18.6837C178.952 19.5777 178.636 20.8852 177.275 22.0315C177.241 22.0615 177.198 22.0757 177.156 22.0757L177.155 22.0743Z" fill="#EA5A3D"/>
  <path d="M180.144 51.8695C180.064 51.8695 179.991 51.8182 179.966 51.7384C179.952 51.6927 178.583 47.1173 177.992 44.9329C177.965 44.8346 178.023 44.7333 178.122 44.7062C178.221 44.6792 178.322 44.7376 178.349 44.836C178.939 47.0161 180.306 51.5858 180.321 51.6314C180.349 51.7298 180.294 51.8325 180.196 51.861C180.179 51.8667 180.161 51.8681 180.144 51.8681V51.8695Z" fill="#EA5A3D"/>
  <path d="M150.577 35.3415C151.334 38.6822 152.29 40.6697 151.971 41.7049C151.653 42.7386 149.501 44.4097 148.704 45.8412C147.907 47.2727 143.525 52.8405 143.525 52.8405C143.525 52.8405 140.895 49.6595 137.707 48.0683C134.52 46.4771 131.57 46.1591 131.57 46.1591L137.707 32.6381L141.692 27.548L142.808 27.6677L150.578 35.3429L150.577 35.3415Z" fill="#00AFCA"/>
  <path d="M141.518 38.4299C144.525 39.84 147.372 41.7734 149.998 44.1802C149.663 44.5452 149.338 44.9159 149.07 45.2795C146.538 42.9511 143.798 41.0847 140.906 39.7288C140.546 39.5606 140.392 39.1328 140.56 38.7735C140.729 38.4156 141.158 38.2602 141.516 38.4285L141.518 38.4299Z" fill="#372E3E"/>
  <path d="M153.326 12.5542C153.544 11.7386 152.57 10.9815 151.393 10.665C150.137 10.327 147.607 10.1189 145.695 11.3009C143.444 12.6925 142.666 14.8996 142.686 16.9286C142.706 18.9561 144.519 21.1048 144.519 21.1048L149.361 21.2046L153.087 15.4785L153.326 12.5556V12.5542Z" fill="#372E3E"/>
  <path d="M152.449 11.7984C153.246 11.9966 154.442 13.3896 154.879 15.0593C155.317 16.7289 155.795 18.9959 155.676 20.5073C155.556 22.0187 154.879 22.8542 153.763 23.57C152.647 24.2857 151.033 24.5438 151.033 24.5438C151.033 24.5438 149.658 29.0579 149.658 30.0916C149.658 31.1253 150.574 35.3415 150.574 35.3415C150.574 35.3415 148.302 35.3415 146.71 33.1144C145.115 30.8872 143.721 28.4619 142.805 27.6663C142.805 27.6663 143.841 24.1274 144.041 23.1721C144.239 22.2183 144.519 21.1047 144.519 21.1047C144.519 21.1047 145.874 20.7868 146.711 20.0311C146.711 20.0311 145.472 18.4741 145.879 16.5664C146.224 14.9552 147.837 14.8212 148.658 15.2689C149.704 15.8378 150.377 17.3563 150.377 17.3563C150.377 17.3563 151.493 16.5407 151.533 15.199C151.551 14.5731 151.566 13.7874 151.791 13.0916C152.01 12.4158 152.449 11.7999 152.449 11.7999V11.7984Z" fill="#F09060"/>
  <path d="M154.98 15.7152C155.537 16.0132 156.156 16.113 156.633 16.3511C156.945 16.5065 156.872 16.8487 156.415 17.1268C155.956 17.4048 155.179 17.7427 155.179 17.7427L154.98 15.7152Z" fill="#F09060"/>
  <path d="M153.52 16.0374C153.577 16.2555 153.687 16.3439 153.849 16.3026C154.01 16.2612 154.064 16.1286 154.007 15.9105C153.95 15.6923 153.84 15.6039 153.677 15.6453C153.516 15.6866 153.463 15.8192 153.519 16.0374H153.52Z" fill="black"/>
  <path d="M152.609 15.045C152.569 15.045 152.529 15.0322 152.496 15.0065C152.416 14.9438 152.4 14.8283 152.463 14.747C152.759 14.3678 153.333 14.1696 153.997 14.2195C154.099 14.2266 154.176 14.315 154.169 14.4177C154.162 14.5189 154.07 14.5959 153.97 14.5888C153.437 14.5488 152.971 14.6971 152.756 14.9752C152.719 15.0222 152.664 15.0465 152.61 15.0465L152.609 15.045Z" fill="black"/>
  <path d="M154.336 18.5412C154.184 18.5412 154.04 18.5283 153.89 18.5012C153.79 18.4827 153.723 18.3872 153.742 18.2859C153.76 18.1861 153.857 18.1191 153.957 18.1377C154.352 18.209 154.733 18.1605 155.342 18.0393C155.443 18.0193 155.539 18.0835 155.559 18.1847C155.579 18.2845 155.515 18.3815 155.413 18.4014C154.974 18.4884 154.643 18.5412 154.334 18.5412H154.336Z" fill="#EA5A3D"/>
  <path d="M153.784 20.6328C153.77 20.6328 153.757 20.6314 153.743 20.6285C153.643 20.6057 153.581 20.5059 153.604 20.4075C154.056 18.4499 153.294 17.3591 152.8 16.8829C152.727 16.8116 152.724 16.6947 152.796 16.622C152.867 16.5478 152.984 16.5464 153.057 16.6177C153.607 17.1481 154.457 18.3558 153.966 20.4902C153.946 20.5758 153.87 20.6328 153.786 20.6328H153.784Z" fill="#EA5A3D"/>
  <path d="M148.41 21.0078C148.344 21.0078 148.278 21.0049 148.21 20.9992C147.52 20.9365 146.822 20.5701 146.554 20.1266C146.501 20.0396 146.528 19.9256 146.617 19.8728C146.704 19.8201 146.818 19.8472 146.871 19.9356C147.077 20.2749 147.681 20.5815 148.244 20.6314C148.498 20.6542 148.97 20.6428 149.268 20.3063C149.335 20.2293 149.453 20.2236 149.53 20.2906C149.607 20.3576 149.613 20.4745 149.545 20.5515C149.28 20.8495 148.883 21.0092 148.41 21.0092V21.0078Z" fill="#EA5A3D"/>
  <g opacity="0.25">
  <path d="M150.757 19.224C151.051 20.3077 151.61 20.7482 152.414 20.5315C153.219 20.3148 153.479 19.6518 153.186 18.5682C152.891 17.4845 152.333 17.044 151.529 17.2607C150.724 17.4774 150.464 18.1404 150.757 19.224Z" fill="#F44C44"/>
  </g>
  <path d="M148.6 18.1975C148.548 18.1975 148.497 18.1762 148.46 18.1334C148.427 18.0963 147.651 17.2023 147.302 16.5821C147.252 16.4937 147.284 16.3811 147.374 16.3312C147.462 16.2812 147.575 16.3126 147.625 16.4024C147.955 16.9899 148.731 17.8839 148.74 17.8924C148.807 17.9694 148.798 18.0863 148.721 18.1533C148.685 18.1833 148.643 18.199 148.6 18.199V18.1975Z" fill="#EA5A3D"/>
  <path d="M148.813 16.9685C149.313 16.9685 149.72 17.3734 149.72 17.8739C149.72 18.0321 149.676 18.179 149.604 18.3087L150.408 19.4023C150.526 19.562 150.491 19.7859 150.331 19.9042C150.267 19.9513 150.193 19.9741 150.118 19.9741C150.008 19.9741 149.898 19.9228 149.828 19.8272L149.035 18.7493C148.964 18.7679 148.89 18.7793 148.814 18.7793C148.314 18.7793 147.907 18.3743 147.907 17.8739C147.907 17.3734 148.313 16.9685 148.814 16.9685H148.813Z" fill="white"/>
  <path d="M146.057 12.2077C144.464 12.3916 142.653 11.5404 141.199 9.41023C139.745 7.28006 139.063 4.68508 135.513 3.35765C131.963 2.03164 128.565 3.59291 127.102 4.7136C125.639 5.83429 124.755 6.61706 123.195 6.24492C121.635 5.87278 120.522 1.16189 116.436 0.222282C112.864 -0.600413 110.564 1.91472 110.034 2.99834C109.504 4.08196 108.391 4.01495 107.316 3.30061C106.242 2.58628 104.316 -0.222572 100.487 0.014113C96.657 0.249372 95.6812 2.56062 95.0911 3.87094C94.6568 4.83479 93.7739 5.65036 92.7067 4.84335C91.638 4.03633 89.8293 1.60675 86.4404 2.23981C83.0516 2.87287 82.2144 5.98114 82.9702 8.90549C83.7259 11.8298 86.1461 13.3683 88.4763 13.3212C90.8065 13.2742 92.0209 10.096 93.5967 10.1901C95.1726 10.2843 96.0283 14.6544 100.994 14.8583C106.475 15.0835 107.016 9.87647 108.774 10.0747C110.53 10.2728 110.229 16.0602 115.588 16.7047C120.806 17.3335 121.832 11.1326 124.052 11.3579C126.272 11.5832 125.624 16.9784 131.104 18.6994C136.584 20.4204 141.663 15.661 143.752 16.5293L146.058 12.2091L146.057 12.2077Z" fill="#372E3E"/>
  <path d="M141.691 27.5466C141.691 27.5466 136.272 25.3195 122.165 26.0352C108.059 26.751 101.285 28.2623 95.0683 33.5906C88.8521 38.9189 86.3019 46.9519 84.1503 52.0421C81.9987 57.1322 81.5201 60.7909 80.1657 63.4158C78.8113 66.0407 77.3769 70.8129 78.1727 73.1184C78.9699 75.4254 80.2043 76.3793 82.0573 76.4392C82.0573 76.4392 83.3717 77.9306 84.6275 78.4082C85.8833 78.8859 87.3763 77.9306 87.3763 77.9306C87.3763 77.9306 88.6321 79.8996 91.2023 79.6002C93.7725 79.3022 94.7283 77.5727 94.7283 77.5727C94.7283 77.5727 98.3143 76.797 98.1957 73.8741C98.0757 70.9512 97.0599 69.2816 97.2399 67.0744C97.4199 64.8673 100.467 59.0813 101.902 56.3965C103.336 53.7117 107.162 46.9719 107.879 44.8246C107.879 44.8246 114.036 44.8246 119.773 44.8845C125.511 44.9444 130.771 44.6464 133.76 44.3469C136.749 44.0489 142.109 42.194 143.384 37.7255C145.357 30.806 141.691 27.5451 141.691 27.5451V27.5466Z" fill="#F09060"/>
  <path d="M91.921 77.8379C91.8738 77.8379 91.8267 77.8194 91.7895 77.7837C91.7166 77.711 91.7166 77.5941 91.7895 77.5228C92.6696 76.6445 93.5839 73.9183 93.9354 72.7862C93.9654 72.6893 94.0697 72.6351 94.1668 72.665C94.264 72.695 94.3183 72.7991 94.2883 72.896C93.8411 74.3332 92.9553 76.8797 92.051 77.7837C92.0152 77.8194 91.9681 77.8379 91.9195 77.8379H91.921Z" fill="#EA5A3D"/>
  <path d="M94.1796 77.8294C93.2939 77.8294 92.4038 77.4045 92.3581 77.3831C92.2666 77.3389 92.228 77.2277 92.2723 77.1364C92.3166 77.0452 92.4281 77.0067 92.5195 77.0509C92.5324 77.0566 93.7839 77.6526 94.6797 77.3973C94.7783 77.3688 94.8797 77.4259 94.9083 77.5242C94.9368 77.6226 94.8797 77.7239 94.7811 77.7524C94.5882 77.808 94.3839 77.8294 94.1796 77.8294Z" fill="#EA5A3D"/>
  <path d="M107.879 45.01C107.851 45.01 107.821 45.0029 107.794 44.9886C107.704 44.9416 107.669 44.8289 107.717 44.7391C108.832 42.6275 110.084 39.1314 110.097 39.0971C110.131 39.0016 110.237 38.9503 110.332 38.9845C110.428 39.0187 110.48 39.1242 110.445 39.2198C110.432 39.2554 109.172 42.7772 108.044 44.9116C108.011 44.9743 107.947 45.01 107.879 45.01Z" fill="#EA5A3D"/>
  <path opacity="0.4" d="M92.0495 36.7018C92.951 35.5996 93.9496 34.5516 95.0697 33.5906C97.3127 31.6686 99.6301 30.2442 102.336 29.1735C103.606 31.6045 102.579 33.9528 99.2743 36.1471C96.2141 38.1789 93.7868 38.3586 92.0495 36.7003V36.7018Z" fill="#F44C44"/>
  <path d="M99.1129 61.6478C97.4199 61.0518 95.4869 60.7139 94.5311 60.2762C93.5753 59.8384 93.9139 59.4406 93.5553 58.6849C93.1967 57.9293 91.8023 57.3732 90.2879 56.9355C88.7735 56.4977 87.3191 56.6974 86.7219 57.3732C86.1248 58.049 85.7862 57.8708 84.7889 57.6712C83.7931 57.473 82.4373 56.7373 82.4373 56.7373C82.4373 56.7373 81.7801 56.7373 81.2815 58.3484C80.7886 59.9439 80.6643 60.7937 81.1015 61.1915C81.5401 61.5893 84.0103 62.4833 84.5689 62.7628C85.1261 63.0408 85.1861 63.6967 86.5419 64.2542C87.8963 64.8117 90.1479 65.3677 91.1837 65.4077C92.2195 65.4476 92.3195 65.0498 93.5153 65.4077C94.7112 65.7655 96.5042 66.4414 97.2614 66.5611C98.0186 66.6809 98.5758 65.4675 98.9744 64.3939C99.373 63.3203 99.6516 61.8388 99.1144 61.6506L99.1129 61.6478Z" fill="#00AFCA"/>
  <path d="M90.5865 57.3718C89.3507 56.9854 87.5777 56.8143 87.0605 57.6099C86.5419 58.4055 86.0047 59.7971 85.7661 60.6925C85.5275 61.5879 85.4675 63.0194 85.9261 63.4957C86.3847 63.9733 88.1577 64.4296 89.0735 64.6691C89.9893 64.9072 90.9865 65.1667 91.6837 64.9471C92.3809 64.729 92.8595 63.2576 93.1581 62.0641C93.4567 60.8707 93.6167 59.4193 93.1781 58.7634C92.7395 58.1075 91.6037 57.6898 90.5879 57.3718H90.5865Z" fill="#372E3E"/>
  <path d="M89.2178 63.5612L89.2735 62.8454C89.3707 62.8525 89.4707 62.854 89.5664 62.8454L89.625 63.5612C89.5593 63.5669 89.4921 63.5683 89.425 63.5683C89.3578 63.5683 89.2864 63.5654 89.2178 63.5597V63.5612ZM89.8593 62.8012C89.9536 62.7798 90.0479 62.7485 90.1379 62.7114L90.4122 63.3744C90.2865 63.4257 90.155 63.4685 90.0236 63.4984L89.8593 62.7998V62.8012ZM88.4277 63.3715L88.7035 62.71C88.7935 62.747 88.8878 62.7784 88.9821 62.7998L88.8149 63.497C88.6835 63.4656 88.5535 63.4229 88.4263 63.3715H88.4277ZM90.4008 62.5802C90.4836 62.5303 90.5636 62.4718 90.6408 62.4077L91.1051 62.9552C91.0008 63.0422 90.8908 63.122 90.7765 63.1919L90.4022 62.5788L90.4008 62.5802ZM87.7377 62.9495L88.2049 62.4048C88.2792 62.469 88.3592 62.5275 88.442 62.5774L88.0649 63.189C87.9506 63.1192 87.8391 63.0379 87.7363 62.9495H87.7377ZM90.8479 62.2024C90.9122 62.1282 90.9708 62.0484 91.0222 61.9657L91.6337 62.3435C91.5623 62.4576 91.4823 62.5674 91.3937 62.67L90.8494 62.2024H90.8479ZM87.2105 62.3364L87.8234 61.96C87.8748 62.0441 87.9334 62.1239 87.9963 62.1981L87.4491 62.6643C87.3619 62.5617 87.2819 62.4519 87.2105 62.3364ZM91.1565 61.7062C91.1951 61.6164 91.2251 61.5223 91.2494 61.4281L91.948 61.5978C91.9166 61.729 91.8723 61.8587 91.8209 61.9842L91.158 61.7062H91.1565ZM86.899 61.5893L87.5977 61.4224C87.6205 61.5165 87.6505 61.6107 87.6891 61.7005L87.0248 61.9771C86.9733 61.8516 86.9305 61.7219 86.899 61.5907V61.5893ZM91.2965 61.1387C91.3008 61.086 91.3037 61.0346 91.3037 60.9804C91.3037 60.9348 91.3023 60.8892 91.2994 60.845L92.0166 60.7937C92.0209 60.855 92.0237 60.9177 92.0237 60.9804C92.0237 61.0546 92.0209 61.1273 92.0152 61.1986L91.2994 61.1387H91.2965ZM91.1651 60.2761L91.8309 60.0052C91.8823 60.1307 91.9237 60.2618 91.9537 60.393L91.2537 60.5556C91.2322 60.4614 91.2022 60.3673 91.1651 60.2761ZM90.8622 59.7742L91.4137 59.3137C91.5008 59.4178 91.5808 59.529 91.6494 59.643L91.0337 60.0137C90.9837 59.931 90.9265 59.8498 90.8622 59.7742ZM90.4193 59.3907L90.8008 58.7818C90.9151 58.8531 91.0251 58.9344 91.1265 59.0228L90.6551 59.5646C90.5808 59.5004 90.5008 59.4406 90.4193 59.3892V59.3907ZM89.8793 59.1625L90.055 58.4667C90.1864 58.4995 90.3165 58.5437 90.4408 58.5951L90.1593 59.2552C90.0693 59.2167 89.975 59.1853 89.8793 59.1611V59.1625Z" fill="#FFECE3"/>
  <path d="M128.577 51.6728C132.351 52.0136 138.042 54.8338 140.469 57.1907C141.112 55.8747 142.281 54.5472 143.524 52.8391C143.524 52.8391 141.851 50.5307 138.263 48.3849C134.676 46.2362 131.568 46.1577 131.568 46.1577C131.568 46.1577 130.213 49.0208 128.94 51.0868C128.828 51.2693 128.705 51.4632 128.577 51.6714V51.6728Z" fill="#F09060"/>
  <path d="M147.375 43.1621L147.161 42.7914C149.7 41.3328 149.27 39.3053 148.5 36.9998L148.907 36.8643C149.675 39.1642 150.19 41.5453 147.375 43.1621Z" fill="#372E3E"/>
  <path d="M138.266 62.566C138.253 62.566 138.24 62.566 138.227 62.5618C134.219 61.7006 129.605 61.2186 129.558 61.2144C129.457 61.2044 129.383 61.1131 129.393 61.0119C129.403 60.9107 129.497 60.8365 129.595 60.8479C129.641 60.8522 134.274 61.3356 138.305 62.2025C138.405 62.2238 138.468 62.3222 138.446 62.422C138.428 62.509 138.35 62.5675 138.266 62.5675V62.566Z" fill="black"/>
  <path d="M132.446 86.9047C132.431 86.9047 132.417 86.9033 132.401 86.899C128.694 86.005 124.431 84.9057 120.76 83.1691C116.446 81.1273 113.927 78.6635 113.061 75.6365C113.033 75.5381 113.09 75.4369 113.188 75.4083C113.287 75.3798 113.388 75.4369 113.417 75.5352C114.253 78.4553 116.707 80.8421 120.919 82.8354C124.558 84.5564 128.798 85.65 132.488 86.5397C132.587 86.5639 132.648 86.6637 132.624 86.7621C132.604 86.8462 132.528 86.9033 132.444 86.9033L132.446 86.9047Z" fill="black"/>
  <path d="M156.912 91.1992C156.849 91.1992 156.787 91.1664 156.753 91.1093C156.7 91.0224 156.729 90.9083 156.817 90.8555C161.876 87.8442 167.214 84.87 171.96 84.4693C172.064 84.4608 172.152 84.5363 172.16 84.6376C172.169 84.7388 172.093 84.8286 171.992 84.8372C167.324 85.2321 161.809 88.3147 157.007 91.1735C156.977 91.1906 156.945 91.1992 156.913 91.1992H156.912Z" fill="#EA5A3D"/>
  <path d="M31.3132 154.962C31.7118 153.212 32.5419 153.04 36.9722 151.541C41.9126 149.872 43.2685 146.949 44.9415 147.425C45.9687 147.719 46.2301 148.168 46.2787 148.471L46.1387 148.598C46.1387 148.598 46.6173 149.951 45.7401 153.051C44.8629 156.154 43.2699 160.689 44.8629 163.71C46.4559 166.735 52.5121 167.847 56.3381 166.893C58.9011 166.254 59.9226 166.79 60.3198 167.215L60.477 167.422C60.5413 167.53 60.5613 167.607 60.5613 167.607C60.5684 167.594 60.5798 167.58 60.587 167.567L60.8013 167.848C61.6785 169.281 59.3669 170.553 58.0911 173.734C56.8153 176.915 55.0623 186.141 55.0623 191.867C55.0623 195.399 55.4609 201.172 53.8664 202.923C52.272 204.673 50.3076 204.078 49.5632 202.764C47.4917 199.105 43.5499 190.082 40.6368 178.982C37.1308 165.621 30.9146 156.713 31.3118 154.963L31.3132 154.962Z" fill="#00AFCA"/>
  <path d="M48.3631 198.312C48.3631 198.312 44.8071 200.773 45.7529 202.063C46.6986 203.352 48.3959 202.976 50.3332 201.191L48.3631 198.312ZM47.4373 194.507C47.4373 194.507 43.5155 197.287 42.4197 195.301C41.3239 193.315 44.8013 192.026 45.6828 191.348L47.4373 194.507ZM45.3071 188.16C45.3071 188.16 40.5824 190.446 39.8452 188.237C39.108 186.03 42.9255 184.812 43.9756 184.539L45.3057 188.159L45.3071 188.16ZM42.2497 181.667C42.2497 181.667 38.4851 182.839 37.9037 181.231C37.3236 179.622 38.1322 178.547 40.7553 177.545L42.2497 181.667Z" fill="black"/>
  <path d="M31.3132 154.962C31.5146 154.076 31.829 153.594 32.6633 153.139C34.6092 157.601 37.3437 163.022 39.5224 168.801C42.5512 176.834 43.7456 184.469 46.9344 192.502C49.3703 198.639 51.5477 202.212 52.6435 203.811C51.3776 204.332 50.1247 203.752 49.5646 202.762C47.4931 199.103 43.5513 190.081 40.6382 178.981C37.1322 165.62 30.916 156.711 31.3132 154.962Z" fill="#372E3E"/>
  <path d="M57.2538 175.646C57.2181 175.646 57.1824 175.636 57.151 175.615C55.0022 174.186 51.7434 174.24 48.5431 174.511C45.7772 174.746 41.6712 175.573 41.6312 175.582C41.5326 175.603 41.434 175.538 41.4126 175.438C41.3926 175.338 41.4569 175.241 41.5569 175.22C41.5983 175.211 45.7244 174.38 48.5117 174.143C51.7805 173.865 55.1137 173.815 57.3567 175.307C57.4424 175.364 57.4653 175.478 57.4081 175.563C57.3724 175.616 57.3138 175.646 57.2538 175.646Z" fill="black"/>
  <path d="M43.3855 181.134C43.3041 181.134 43.2298 181.08 43.207 180.997C43.1798 180.899 43.2384 180.797 43.337 180.77C46.6472 179.875 53.5092 179.277 56.3066 180.419C56.4009 180.458 56.4466 180.566 56.408 180.66C56.3694 180.755 56.2609 180.8 56.1666 180.762C54.1107 179.923 47.9731 179.899 43.4341 181.127C43.4184 181.131 43.4013 181.132 43.3855 181.132V181.134Z" fill="black"/>
  <path d="M60.3012 169.98C60.2355 169.98 60.1712 169.944 60.1384 169.883C59.4855 168.668 58.7368 168.758 56.9267 168.975C56.4523 169.032 55.9152 169.096 55.2965 169.146C52.4463 169.374 48.1403 169.716 44.7614 166.834C41.9712 164.455 41.4254 160.529 43.0899 154.832C44.3214 150.62 44.5085 149.224 43.3756 148.095C43.3027 148.022 43.3027 147.905 43.3756 147.834C43.447 147.761 43.5656 147.761 43.637 147.834C44.9043 149.099 44.7228 150.562 43.4442 154.936C41.824 160.48 42.3327 164.281 45 166.555C48.2617 169.337 52.4763 169 55.2651 168.778C55.8766 168.729 56.4109 168.665 56.881 168.608C58.694 168.391 59.6912 168.272 60.4641 169.709C60.5127 169.799 60.4784 169.911 60.3884 169.958C60.3612 169.973 60.3312 169.98 60.3012 169.98Z" fill="black"/>
  <path d="M117.759 112.19C118.273 110.471 119.112 110.354 123.632 109.153C128.674 107.814 130.28 104.841 131.858 105.574C133.223 106.209 133.361 108.205 132.28 111.24C131.198 114.279 129.308 118.697 130.695 121.817C132.083 124.94 138.053 126.451 141.933 125.752C144.534 125.285 145.517 125.888 145.885 126.337L146.029 126.554C146.087 126.666 146.102 126.745 146.102 126.745C146.111 126.733 146.122 126.719 146.131 126.706L146.325 127C147.105 128.489 144.714 129.604 143.231 132.693C141.748 135.783 139.383 144.873 139.003 150.587C138.769 154.112 138.782 159.899 137.074 161.539C135.367 163.179 133.446 162.456 132.791 161.095C130.967 157.307 127.635 148.044 125.466 136.775C122.856 123.21 117.246 113.911 117.76 112.191L117.759 112.19Z" fill="#00AFCA"/>
  <path d="M131.888 156.574C131.888 156.574 128.177 158.794 129.034 160.144C129.893 161.493 131.61 161.229 133.663 159.577L131.888 156.574ZM131.218 152.716C131.218 152.716 127.121 155.23 126.159 153.176C125.198 151.122 128.754 150.067 129.678 149.449L131.22 152.717L131.218 152.716ZM129.515 146.243C129.515 146.243 124.649 148.21 124.061 145.959C123.472 143.708 127.362 142.745 128.428 142.543L129.515 146.244V146.243ZM126.897 139.561C126.897 139.561 123.062 140.481 122.589 138.838C122.116 137.195 122.996 136.176 125.679 135.35L126.895 139.561H126.897Z" fill="black"/>
  <path d="M117.759 112.19C118.019 111.319 118.363 110.86 119.226 110.462C120.87 115.043 123.239 120.634 125.028 126.542C127.515 134.758 128.2 142.456 130.847 150.683C132.868 156.968 134.804 160.676 135.792 162.346C134.494 162.781 133.283 162.119 132.79 161.094C130.965 157.306 127.634 148.042 125.465 136.774C122.855 123.209 117.244 113.91 117.759 112.19Z" fill="#372E3E"/>
  <path d="M142.279 134.548C142.239 134.548 142.201 134.535 142.166 134.51C140.118 132.941 136.863 132.779 133.65 132.839C130.874 132.89 126.724 133.443 126.682 133.449C126.581 133.462 126.488 133.392 126.474 133.291C126.459 133.189 126.531 133.097 126.632 133.083C126.674 133.077 130.845 132.521 133.643 132.469C136.923 132.41 140.252 132.579 142.391 134.216C142.472 134.279 142.486 134.394 142.425 134.476C142.389 134.523 142.334 134.548 142.278 134.548H142.279Z" fill="black"/>
  <path d="M140.923 139.598C140.896 139.598 140.869 139.593 140.842 139.58C138.848 138.606 132.724 138.176 128.114 139.101C128.012 139.121 127.917 139.057 127.897 138.957C127.877 138.857 127.941 138.76 128.041 138.74C131.404 138.066 138.289 137.925 141.005 139.249C141.096 139.293 141.135 139.405 141.089 139.496C141.058 139.561 140.992 139.6 140.923 139.6V139.598Z" fill="black"/>
  <path d="M145.698 129.095C145.628 129.095 145.561 129.055 145.529 128.986C144.959 127.73 144.205 127.77 142.385 127.867C141.908 127.893 141.366 127.921 140.746 127.93C137.887 127.968 133.567 128.025 130.388 124.927C127.762 122.368 127.478 118.414 129.52 112.84C131.028 108.718 131.307 107.339 130.253 106.136C130.185 106.059 130.193 105.942 130.27 105.875C130.347 105.808 130.464 105.815 130.531 105.892C131.711 107.237 131.434 108.685 129.867 112.966C127.881 118.39 128.137 122.215 130.647 124.662C133.717 127.654 137.945 127.596 140.742 127.56C141.355 127.552 141.892 127.523 142.366 127.499C144.189 127.402 145.194 127.349 145.868 128.835C145.909 128.928 145.868 129.037 145.775 129.079C145.751 129.09 145.725 129.096 145.699 129.096L145.698 129.095Z" fill="black"/>
  <path d="M65.0559 130.948C68.7948 139.024 76.2111 146.066 82.1458 148.9C92.8338 139.146 107.591 121.559 113.798 113.602C117.893 108.353 124.299 98.9428 128.432 92.7647C119.183 91.0395 111.001 85.4646 107.482 82.3107C105.969 84.3339 103.866 87.0501 101.285 90.1384C95.7055 96.8226 80.8843 114.638 71.9579 124.023C69.9634 126.117 67.569 128.511 65.0559 130.947V130.948Z" fill="#F09060"/>
  <path opacity="0.4" d="M104.392 125.085C100.437 129.742 95.9355 134.852 91.5208 139.547C88.902 136.467 89.5893 132.688 93.5724 128.316C97.4813 124.027 101.12 122.945 104.393 125.087L104.392 125.085Z" fill="#F44C44"/>
  <path d="M44.8614 163.71C46.4544 166.735 52.5106 167.847 56.3366 166.893C60.1655 165.939 60.5613 167.607 60.5613 167.607C61.6799 165.698 70.1277 159.496 80.8857 150.031C80.9829 149.948 81.0758 149.863 81.1729 149.776C81.4929 149.492 81.8158 149.198 82.1473 148.9C76.2125 146.066 68.7962 139.024 65.0573 130.948C64.9459 131.055 64.8388 131.163 64.7273 131.27C56.0709 139.668 46.1387 148.598 46.1387 148.598C46.1387 148.598 46.6173 149.951 45.7401 153.051C44.8629 156.154 43.2699 160.689 44.8629 163.71H44.8614Z" fill="#EA5A3D"/>
  <path d="M130.471 123.447C131.427 125.915 135.616 127.741 138.962 126.787C142.309 125.834 144.699 126.428 144.699 126.428C145.019 125.951 149.24 122.195 152.827 120.286C155.03 119.112 161.078 115.712 166.941 112.946L168.127 112.382C163.382 108.871 156.109 98.2584 154.57 92.5109L132.843 106.524C133.163 107.877 131.031 110.423 129.755 114.557C128.482 118.693 129.514 120.982 130.471 123.447Z" fill="#EA5A3D"/>
  </svg>
  