<svg width="448" height="348" viewBox="0 0 448 348" fill="none" xmlns="http://www.w3.org/2000/svg">
  <path opacity="0.5" d="M11.8184 347.455C11.8184 347.455 74.2265 280.454 88.005 279.646C101.784 278.84 173.107 322.429 184.455 323.236C195.803 324.042 263.074 289.331 278.474 290.139C293.874 290.946 344.124 321.621 355.472 324.044C366.82 326.465 398.429 311.936 409.777 312.742C421.125 313.548 447.87 347.452 447.87 347.452H11.8184V347.455Z" fill="#00AFCA"/>
  <path d="M188.071 346.746C187.908 346.746 187.743 346.704 187.592 346.615C187.143 346.351 186.994 345.775 187.259 345.327L198.974 325.54C199.239 325.092 199.818 324.945 200.267 325.208C200.717 325.472 200.865 326.048 200.6 326.496L188.883 346.283C188.708 346.581 188.392 346.746 188.069 346.746H188.071Z" fill="#372E3E"/>
  <path d="M257.69 346.915C257.54 346.915 257.389 346.879 257.248 346.804C256.789 346.559 256.614 345.99 256.859 345.533L269.425 322.025C269.67 321.568 270.242 321.394 270.701 321.638C271.16 321.883 271.335 322.451 271.09 322.909L258.524 346.417C258.354 346.734 258.028 346.915 257.69 346.915Z" fill="#372E3E"/>
  <path d="M319.066 346.746C318.92 346.746 318.771 346.712 318.633 346.642C318.169 346.404 317.986 345.835 318.227 345.376L332.411 317.978C332.65 317.515 333.221 317.334 333.683 317.574C334.147 317.811 334.329 318.38 334.089 318.84L319.904 346.237C319.736 346.562 319.406 346.748 319.063 346.748L319.066 346.746Z" fill="#372E3E"/>
  <path d="M359.531 247.286C348.864 247.286 340.517 246.722 335.892 243.309C333.031 241.198 331.811 238.237 332.548 235.189C333.464 231.394 337.221 228.227 341.684 227.487C348.803 226.305 355.936 229.583 360.523 233.744C360.834 230.81 362.28 225.964 368.266 224.337C375.235 222.444 382.273 229.167 384.867 232.001C385.251 231.222 385.841 230.229 386.706 229.232C388.393 227.281 391.487 224.928 396.635 224.792C404.833 224.582 409.896 230.082 411.743 234.86C413.204 238.641 412.81 242.226 410.737 243.998C407.492 246.768 392.408 247.15 376.591 247.15C373.468 247.15 370.427 247.187 367.486 247.22C364.715 247.254 362.059 247.286 359.531 247.286ZM344.615 229.13C343.742 229.13 342.865 229.198 341.993 229.343C338.257 229.963 335.126 232.548 334.383 235.632C333.824 237.944 334.759 240.135 337.015 241.798C342.226 245.642 353.921 245.504 367.464 245.342C370.41 245.308 373.455 245.272 376.591 245.272C384.728 245.272 406.345 245.272 409.507 242.573C410.944 241.348 411.133 238.52 409.981 235.54C408.355 231.333 403.895 226.487 396.686 226.676C388.226 226.898 386.15 233.747 386.067 234.037C385.97 234.376 385.691 234.633 385.343 234.7C384.995 234.771 384.641 234.64 384.419 234.366C384.337 234.265 376.141 224.153 368.765 226.155C361.585 228.106 362.321 235.553 362.358 235.87C362.401 236.276 362.18 236.664 361.806 236.831C361.432 236.998 360.992 236.906 360.717 236.603C357.266 232.783 351.019 229.133 344.617 229.133L344.615 229.13Z" fill="#00AFCA"/>
  <path d="M15.3667 202.8C13.2279 202.8 10.9991 202.781 8.69742 202.735C3.9628 202.638 0.754535 200.445 0.115312 196.869C-0.278429 194.664 0.34378 192.207 1.86528 189.951C3.42809 187.632 5.82214 185.761 8.6075 184.676C12.8366 183.033 17.2115 183.8 21.2607 186.894C22.8235 188.089 24.0461 189.404 24.8651 190.404C25.2564 189.254 25.8957 187.709 26.9019 186.1C29.5633 181.842 33.5323 179.164 38.3812 178.361C43.2762 177.547 47.9136 179.249 51.7976 183.277C53.1027 184.63 54.1114 186.025 54.8284 187.157C55.8103 184.381 58.2554 181.767 61.3227 180.464C65.3501 178.755 69.5208 179.694 72.7631 183.045C79.2768 189.772 78.4213 200.496 78.3824 200.948C78.3411 201.425 77.9449 201.796 77.4637 201.808C77.1769 201.815 48.6476 202.505 35.5083 202.505C33.6393 202.505 31.2914 202.558 28.5717 202.619C24.7582 202.703 20.2958 202.803 15.3667 202.803V202.8ZM13.0116 185.707C11.7744 185.707 10.5325 185.947 9.2929 186.429C3.95308 188.503 1.37917 193.2 1.97465 196.54C2.45103 199.203 4.91313 200.776 8.73631 200.854C16.2952 201.006 23.0787 200.856 28.5279 200.735C31.2598 200.675 33.6174 200.621 35.5083 200.621C47.3206 200.621 71.6086 200.062 76.5352 199.946C76.5887 197.368 76.3214 189.428 71.402 184.349C67.749 180.576 63.9817 181.379 62.0616 182.195C58.6905 183.626 56.1384 187.022 56.2527 189.927C56.2697 190.377 55.9634 190.776 55.5235 190.878C55.0812 190.98 54.6315 190.757 54.4468 190.343C54.4347 190.314 53.0614 187.288 50.3976 184.541C46.9244 180.958 42.987 179.503 38.6923 180.215C34.3563 180.934 30.9414 183.231 28.5401 187.036C26.7172 189.929 26.1922 192.655 26.1849 192.682C26.1144 193.062 25.8155 193.362 25.4339 193.434C25.0523 193.505 24.6658 193.34 24.4568 193.013C24.4422 192.989 22.7968 190.428 20.0673 188.353C17.7462 186.589 15.3837 185.705 13.0091 185.705L13.0116 185.707Z" fill="#00AFCA"/>
  <path d="M334.033 319.529C331.418 319.529 329.007 318.922 326.843 317.702C323.842 316.007 321.627 312.664 321.064 308.975C320.531 305.484 321.538 302.18 323.902 299.667C329.493 293.729 337.423 293.95 341.13 294.456C339.779 291.621 338.036 285.957 342.192 280.781C345.748 276.354 349.846 275.896 352.658 276.291C354.187 276.506 355.492 276.988 356.42 277.416C356.568 275.501 357.237 273.579 358.391 271.781C359.728 269.701 361.651 267.9 363.806 266.717C367.265 264.816 370.782 264.763 373.213 266.579C379.233 271.076 376.781 282.87 366.964 296.625C361.566 304.187 354.583 310.88 347.806 314.986C342.824 318.004 338.172 319.525 334.033 319.527V319.529ZM337.756 296.133C334.055 296.133 329.007 296.997 325.281 300.955C323.322 303.037 322.485 305.785 322.93 308.694C323.402 311.778 325.302 314.673 327.774 316.068C334.033 319.6 341.587 316.557 346.825 313.386C353.389 309.408 360.168 302.904 365.423 295.54C375.85 280.931 376.28 271.224 372.077 268.087C370.257 266.729 367.508 266.833 364.718 268.365C361.361 270.21 357.922 274.301 358.301 278.927C358.331 279.29 358.148 279.636 357.835 279.818C357.519 279.999 357.127 279.985 356.826 279.779C356.527 279.575 349.372 274.855 343.665 281.957C338.753 288.075 343.495 294.913 343.699 295.201C343.927 295.523 343.93 295.954 343.704 296.281C343.478 296.608 343.072 296.755 342.69 296.656C342.644 296.644 340.595 296.133 337.754 296.133H337.756Z" fill="#0FB9D3"/>
  <path d="M270.609 323.465C268.489 323.465 266.421 322.959 264.399 321.952C262.376 320.945 260.826 319.004 260.167 316.634C259.358 313.727 259.944 310.515 261.817 307.583C264.651 303.148 269.61 302.686 272.181 302.778C271.809 301.739 271.374 300.236 271.185 298.484C270.708 294.066 272.038 290.193 275.03 287.288C279.478 282.969 283.852 282.519 286.74 282.901C287.926 283.059 288.961 283.364 289.793 283.686C288.65 279.914 288.808 276.351 291.91 272.18C294.158 269.157 298.314 267.293 301.79 267.748C304.609 268.116 306.806 269.946 307.98 272.901C309.378 276.424 308.296 281.863 304.767 289.069C301.255 296.242 296.26 303.25 293.594 306.789C285.192 317.946 277.613 323.461 270.609 323.461V323.465ZM271.697 304.664C269.437 304.664 265.575 305.208 263.412 308.595C261.832 311.069 261.327 313.746 261.99 316.133C262.505 317.99 263.694 319.498 265.247 320.27C273 324.131 281.779 319.353 292.087 305.663C294.712 302.178 299.629 295.281 303.073 288.249C306.315 281.631 307.406 276.564 306.228 273.596C305.304 271.272 303.685 269.895 301.549 269.614C298.754 269.246 295.269 270.834 293.434 273.301C290.22 277.622 290.607 280.95 292.359 285.24C292.517 285.627 292.401 286.073 292.07 286.332C291.739 286.591 291.278 286.603 290.935 286.358C290.648 286.157 283.748 281.454 276.352 288.634C270.13 294.676 274.451 303.344 274.497 303.432C274.66 303.751 274.629 304.134 274.412 304.419C274.198 304.707 273.839 304.848 273.486 304.782C273.464 304.777 272.757 304.659 271.7 304.659L271.697 304.664Z" fill="#0FB9D3"/>
  <path d="M200.834 326.789C190.499 326.789 187.524 321.459 186.722 319.147C185.104 314.492 187.189 308.932 191.912 305.315C195.708 302.405 201.067 301.11 207.413 301.57C210.05 301.761 212.33 302.209 213.857 302.58C212.986 300.425 211.961 296.806 213.11 293.57C213.939 291.231 215.74 289.508 218.462 288.443C221.279 287.341 223.963 287.731 226.019 289.546C229.198 292.354 230.352 297.997 228.892 303.591C227.538 308.781 224.361 314.303 220.399 318.365C215.096 323.8 208.444 326.712 201.16 326.789C201.053 326.789 200.943 326.789 200.836 326.789H200.834ZM204.917 303.371C200.941 303.371 196.529 304.148 193.064 306.804C188.988 309.926 187.155 314.64 188.506 318.53C189.938 322.65 194.539 324.964 201.138 324.903C207.907 324.831 214.097 322.115 219.043 317.051C222.789 313.214 225.788 308.004 227.064 303.115C228.33 298.263 227.385 293.262 224.765 290.95C223.248 289.609 221.306 289.348 219.153 290.19C216.963 291.047 215.531 292.393 214.892 294.194C213.436 298.3 216.372 303.512 216.401 303.562C216.596 303.901 216.559 304.323 216.311 304.625C216.063 304.928 215.655 305.044 215.283 304.92C215.203 304.894 210.485 303.369 204.92 303.369L204.917 303.371Z" fill="#0FB9D3"/>
  <path d="M112.75 95.9764H79.8091C79.2866 95.9764 78.8661 95.5552 78.8661 95.0372C78.8661 94.5192 79.289 94.098 79.8091 94.098H112.75C113.272 94.098 113.693 94.5192 113.693 95.0372C113.693 95.5552 113.27 95.9764 112.75 95.9764Z" fill="#00AFCA"/>
  <path d="M118.792 54.2552H85.8515C85.3289 54.2552 84.9084 53.834 84.9084 53.316C84.9084 52.798 85.3313 52.3768 85.8515 52.3768H118.792C119.315 52.3768 119.735 52.798 119.735 53.316C119.735 53.834 119.312 54.2552 118.792 54.2552Z" fill="#00AFCA"/>
  <path d="M129.051 31.5417H96.1105C95.588 31.5417 95.1675 31.1205 95.1675 30.6025C95.1675 30.0845 95.5904 29.6633 96.1105 29.6633H129.051C129.574 29.6633 129.994 30.0845 129.994 30.6025C129.994 31.1205 129.571 31.5417 129.051 31.5417Z" fill="#00AFCA"/>
  <path d="M140.851 64.0132H107.911C107.388 64.0132 106.968 63.592 106.968 63.0739C106.968 62.5559 107.391 62.1347 107.911 62.1347H140.851C141.374 62.1347 141.794 62.5559 141.794 63.0739C141.794 63.592 141.371 64.0132 140.851 64.0132Z" fill="#00AFCA"/>
  <path d="M93.408 122.747H60.4673C59.9448 122.747 59.5243 122.326 59.5243 121.808C59.5243 121.29 59.9472 120.869 60.4673 120.869H93.408C93.9305 120.869 94.351 121.29 94.351 121.808C94.351 122.326 93.9281 122.747 93.408 122.747Z" fill="#00AFCA"/>
  <path d="M124.465 139.523H91.5242C91.0017 139.523 90.5812 139.101 90.5812 138.583C90.5812 138.065 91.0041 137.644 91.5242 137.644H124.465C124.987 137.644 125.408 138.065 125.408 138.583C125.408 139.101 124.985 139.523 124.465 139.523Z" fill="#00AFCA"/>
  <path d="M246.471 151.689C257.45 153.309 266.941 154.521 266.941 154.521L262.96 157.061C265.578 166.819 277.949 184.836 286.023 190.798C290.517 188.673 294.646 186.681 297.583 185.177C307.348 180.183 328.632 169.109 328.907 152.633C329.177 136.158 313.58 126.436 298.127 120.631C287.192 116.526 260.228 110.856 245.404 107.896C247.458 116.259 248.268 131.57 235.534 149.692C238.801 150.392 242.585 151.118 246.474 151.689H246.471Z" fill="#F09060"/>
  <path opacity="0.4" d="M322.281 135.523C326.433 140.215 329.014 145.85 328.902 152.636C328.824 157.23 327.113 161.403 324.474 165.143C320.021 163.033 317.7 157.92 317.586 149.861C317.488 142.958 319.066 138.165 322.279 135.526L322.281 135.523Z" fill="#F44C44"/>
  <path d="M182.851 139.745C188.837 145.1 202.756 154.565 218.492 157.494C222.546 151.452 225.316 147.23 225.316 147.23C225.316 147.23 229.56 148.419 235.529 149.692C248.263 131.57 247.456 116.259 245.4 107.896C239.272 106.671 235.218 105.911 235.218 105.911C235.218 105.911 237.792 99.5638 238.876 97.2738C238.9 97.2132 238.932 97.1576 238.968 97.097C234.841 93.0956 225.161 88.3074 218.737 87.7289C216.455 91.3527 212.78 96.8598 210.677 98.2178C208.371 99.7042 199.811 100.982 193.051 109.017C184.642 119.012 187.493 133.325 187.493 133.325C187.493 133.325 185.847 135.744 182.851 139.745Z" fill="#372E3E"/>
  <path d="M253.892 55.9499C257.45 56.7608 263.653 60.709 271.382 64.6596C279.111 68.6102 303.107 76.204 303.107 76.204C303.107 76.204 300.667 63.747 299.041 56.7584C297.415 49.7698 295.786 43.4904 295.786 43.4904C295.786 43.4904 291.72 40.0482 288.974 35.49C286.227 30.9317 285.719 26.5769 285.719 26.5769C285.719 26.5769 283.483 24.8558 283.177 21.5127C282.871 18.1697 285.109 16.9545 285.109 16.9545C285.109 16.9545 284.703 14.7275 285.923 13.2073C287.144 11.6871 288.77 11.5878 288.77 11.5878C288.77 11.5878 289.38 9.25907 291.21 8.65147C293.04 8.04387 294.972 8.95648 294.972 8.95648C294.972 8.95648 296.802 6.82867 300.159 7.43627C303.515 8.04387 309.108 11.3869 312.768 17.8671C316.429 24.3498 320.699 39.9441 323.446 49.6681C326.192 59.3897 330.258 76.0006 329.14 85.4172C328.022 94.8362 321.82 103.139 313.886 105.57C305.956 108 294.464 105.064 286.128 102.328C277.789 99.593 250.436 87.0367 246.267 84.6063L253.894 55.945L253.892 55.9499Z" fill="#F09060"/>
  <path opacity="0.4" d="M306.075 106.458C306.33 103.287 308.882 100.651 313.728 98.6053C318.164 96.7341 321.62 96.5816 324.065 98.1212C321.384 101.677 317.85 104.359 313.886 105.575C311.538 106.294 308.875 106.536 306.075 106.458Z" fill="#F44C44"/>
  <path d="M294.668 29.426C294.513 29.426 294.377 29.3098 294.357 29.1501C294.335 28.9782 294.459 28.8209 294.632 28.8015C297.779 28.4166 301.928 27.1869 303.768 25.5844C305.603 23.9843 306.007 21.5127 305.229 20.208C304.536 19.0436 303.19 18.7047 300.944 18.4868C298.883 18.2859 293.439 18.7071 290.388 20.2273C286.742 22.0429 286.135 25.5723 286.035 26.6107C286.018 26.7826 285.863 26.9085 285.692 26.894C285.52 26.877 285.394 26.7245 285.408 26.5527C285.515 25.4343 286.171 21.6289 290.106 19.6681C293.31 18.0729 298.82 17.6517 301.005 17.8647C303.071 18.0656 304.857 18.3561 305.771 19.8908C306.673 21.4062 306.32 24.1949 304.181 26.0588C302.157 27.8235 297.852 29.0411 294.71 29.426C294.698 29.426 294.683 29.426 294.671 29.426H294.668Z" fill="#EA5A3D"/>
  <path d="M302.487 22.498C301.007 22.498 299.474 22.1736 298.173 21.5345C296.688 20.8059 295.733 19.7626 295.478 18.5958C295.441 18.4263 295.548 18.2593 295.718 18.223C295.889 18.1867 296.056 18.2932 296.093 18.4626C296.304 19.4382 297.143 20.329 298.45 20.9705C300.686 22.0695 303.654 22.176 305.667 21.2319C305.824 21.1569 306.012 21.2247 306.085 21.382C306.16 21.5394 306.092 21.7258 305.934 21.7984C304.94 22.2656 303.732 22.4955 302.485 22.4955L302.487 22.498Z" fill="#EA5A3D"/>
  <path d="M293.499 18.9952C293.37 18.9952 293.251 18.9177 293.205 18.7918C291.924 15.3738 293.29 9.85456 294.783 8.71198C294.921 8.60547 295.118 8.6321 295.225 8.77008C295.332 8.90806 295.305 9.10414 295.167 9.21065C293.983 10.1184 292.544 15.2382 293.796 18.574C293.857 18.7362 293.774 18.9177 293.611 18.9782C293.575 18.9928 293.538 18.9976 293.502 18.9976L293.499 18.9952Z" fill="#EA5A3D"/>
  <path d="M290.906 19.7553C290.857 19.7553 290.809 19.7432 290.762 19.7214C288.254 18.4457 287.491 13.4977 288.488 11.4571C288.563 11.3021 288.752 11.2368 288.908 11.3118C289.064 11.3869 289.129 11.5757 289.054 11.7306C288.176 13.5292 288.859 18.0487 291.049 19.1622C291.205 19.2421 291.266 19.4309 291.185 19.5834C291.13 19.6924 291.02 19.7553 290.906 19.7553Z" fill="#EA5A3D"/>
  <path d="M288.82 21.0214C288.799 21.0214 288.777 21.0214 288.755 21.0141C287.773 20.8083 285.413 19.5205 284.803 17.0344C284.762 16.8674 284.866 16.6955 285.034 16.6544C285.204 16.6132 285.374 16.7173 285.415 16.8843C285.926 18.9613 287.926 20.1983 288.886 20.3992C289.056 20.4355 289.166 20.6001 289.129 20.7696C289.098 20.9173 288.966 21.0189 288.82 21.0189V21.0214Z" fill="#EA5A3D"/>
  <path d="M305.904 22.5897C305.81 22.5897 305.717 22.5485 305.654 22.4686C305.547 22.3307 305.574 22.1346 305.71 22.0281C306.442 21.4665 306.916 20.411 306.979 19.2031C307.054 17.7604 306.531 16.3636 305.584 15.4631C303.62 13.604 299.998 13.6766 299.962 13.6766C299.799 13.6863 299.643 13.5459 299.639 13.3716C299.634 13.1997 299.77 13.0545 299.945 13.0496C300.103 13.0448 303.863 12.9698 306.016 15.0104C307.095 16.0344 307.691 17.6127 307.606 19.237C307.533 20.6241 306.969 21.8514 306.094 22.5243C306.036 22.5679 305.97 22.5897 305.902 22.5897H305.904Z" fill="#EA5A3D"/>
  <path d="M301.683 13.7785C301.527 13.7785 301.391 13.6624 301.371 13.5026C301.369 13.4784 301.065 11.0698 300.443 9.97318C300.358 9.8231 300.411 9.63186 300.562 9.54714C300.713 9.46241 300.905 9.51567 300.99 9.66575C301.673 10.8713 301.982 13.3235 301.994 13.4275C302.016 13.5994 301.892 13.7568 301.719 13.7761C301.707 13.7761 301.692 13.7761 301.68 13.7761L301.683 13.7785Z" fill="#EA5A3D"/>
  <path d="M299.6 18.3367C299.566 18.3367 299.529 18.3318 299.495 18.3173C299.332 18.2592 299.245 18.0801 299.303 17.9179C299.435 17.5523 299.736 17.257 300.203 17.044C301.926 16.25 305.608 16.6881 307.287 17.3248C307.45 17.3853 307.531 17.5669 307.47 17.7291C307.409 17.8912 307.227 17.9735 307.064 17.9106C305.277 17.2328 301.882 16.9617 300.467 17.6129C300.161 17.7533 299.969 17.9276 299.899 18.1285C299.853 18.2568 299.731 18.3367 299.602 18.3367H299.6Z" fill="#EA5A3D"/>
  <path d="M301.379 37.4772C301.289 37.4772 301.201 37.4385 301.138 37.3659C301.026 37.2327 301.043 37.0367 301.177 36.9253C303.313 35.1291 303.809 33.0957 303.848 31.7038C303.904 29.7019 303.078 28.0074 302.232 27.2134C302.105 27.0948 302.101 26.8963 302.22 26.7704C302.339 26.6445 302.538 26.6397 302.664 26.7583C303.61 27.6467 304.538 29.5276 304.478 31.7208C304.436 33.2385 303.899 35.4583 301.583 37.4046C301.525 37.4554 301.452 37.4796 301.381 37.4796L301.379 37.4772Z" fill="#EA5A3D"/>
  <path d="M306.463 88.063C306.327 88.063 306.203 87.9759 306.162 87.8403C306.138 87.7628 303.809 79.9948 302.803 76.2862C302.757 76.1192 302.857 75.9473 303.024 75.9013C303.192 75.8553 303.364 75.9546 303.411 76.1216C304.414 79.8229 306.74 87.5813 306.765 87.6587C306.813 87.8258 306.719 88.0001 306.553 88.0485C306.524 88.0582 306.493 88.0606 306.463 88.0606V88.063Z" fill="#EA5A3D"/>
  <path d="M256.164 60.002C257.452 65.6738 259.078 69.0482 258.536 70.8057C257.994 72.5607 254.334 75.3978 252.978 77.8282C251.622 80.2586 244.167 89.7115 244.167 89.7115C244.167 89.7115 239.693 84.3109 234.27 81.6093C228.848 78.9078 223.829 78.368 223.829 78.368L234.27 55.4123L241.049 46.7704L242.947 46.9737L256.167 60.0044L256.164 60.002Z" fill="#00AFCA"/>
  <path d="M240.752 65.2454C245.869 67.6395 250.713 70.922 255.18 75.0081C254.609 75.6278 254.057 76.2572 253.6 76.8745C249.293 72.9215 244.631 69.7527 239.712 67.4506C239.1 67.165 238.837 66.4388 239.124 65.8288C239.411 65.2212 240.14 64.9573 240.75 65.243L240.752 65.2454Z" fill="#372E3E"/>
  <path d="M260.841 21.3142C261.212 19.9295 259.555 18.6441 257.552 18.1067C255.416 17.533 251.111 17.1796 247.859 19.1864C244.029 21.549 242.707 25.2962 242.741 28.7409C242.775 32.1832 245.859 35.8312 245.859 35.8312L254.096 36.0007L260.435 26.2791L260.841 21.3166V21.3142Z" fill="#372E3E"/>
  <path d="M259.348 20.0311C260.704 20.3675 262.739 22.7326 263.482 25.5672C264.229 28.4019 265.04 32.2508 264.839 34.8168C264.634 37.3828 263.482 38.8013 261.584 40.0165C259.686 41.2317 256.939 41.6699 256.939 41.6699C256.939 41.6699 254.601 49.3338 254.601 51.0889C254.601 52.8439 256.159 60.0019 256.159 60.0019C256.159 60.0019 252.295 60.0019 249.585 56.2208C246.872 52.4396 244.5 48.322 242.942 46.9712C242.942 46.9712 244.704 40.963 245.045 39.3411C245.382 37.7217 245.859 35.8311 245.859 35.8311C245.859 35.8311 248.163 35.2913 249.587 34.0083C249.587 34.0083 247.48 31.3649 248.173 28.1259C248.758 25.3905 251.502 25.163 252.9 25.9231C254.679 26.889 255.824 29.467 255.824 29.467C255.824 29.467 257.722 28.0824 257.79 25.8045C257.822 24.7418 257.846 23.408 258.23 22.2267C258.602 21.0792 259.348 20.0335 259.348 20.0335V20.0311Z" fill="#F09060"/>
  <path d="M263.655 26.681C264.603 27.1869 265.655 27.3563 266.467 27.7606C266.997 28.0245 266.873 28.6054 266.095 29.0775C265.315 29.5495 263.993 30.1232 263.993 30.1232L263.655 26.681Z" fill="#F09060"/>
  <path d="M261.171 27.2293C261.268 27.6004 261.455 27.7508 261.73 27.6804C262.005 27.6101 262.097 27.3845 262 27.0134C261.903 26.6423 261.715 26.4919 261.438 26.5622C261.164 26.6326 261.074 26.8581 261.169 27.2293H261.171Z" fill="black"/>
  <path d="M259.62 25.5459C259.552 25.5459 259.484 25.5241 259.428 25.4804C259.292 25.3737 259.266 25.1772 259.372 25.0389C259.876 24.3937 260.853 24.0566 261.983 24.1415C262.155 24.1536 262.287 24.304 262.274 24.4786C262.262 24.6508 262.107 24.7818 261.937 24.7697C261.03 24.7018 260.238 24.954 259.871 25.427C259.807 25.5071 259.715 25.5483 259.623 25.5483L259.62 25.5459Z" fill="black"/>
  <path d="M262.559 31.4805C262.301 31.4805 262.056 31.4587 261.801 31.4126C261.63 31.3811 261.516 31.2186 261.548 31.0464C261.579 30.8766 261.745 30.7626 261.915 30.7941C262.586 30.9154 263.234 30.8329 264.27 30.6267C264.442 30.5928 264.605 30.7019 264.639 30.8741C264.673 31.0439 264.564 31.2089 264.391 31.2428C263.645 31.3908 263.081 31.4805 262.556 31.4805H262.559Z" fill="#EA5A3D"/>
  <path d="M261.621 35.0299C261.596 35.0299 261.575 35.0275 261.55 35.0226C261.38 34.9839 261.276 34.8144 261.314 34.6474C262.083 31.3238 260.787 29.4719 259.946 28.6634C259.822 28.5424 259.817 28.3439 259.939 28.2204C260.06 28.0945 260.26 28.0921 260.384 28.2131C261.319 29.1136 262.765 31.164 261.929 34.7878C261.895 34.9331 261.767 35.0299 261.623 35.0299H261.621Z" fill="#EA5A3D"/>
  <path d="M252.477 35.6666C252.365 35.6666 252.254 35.6618 252.137 35.6521C250.963 35.5456 249.777 34.9235 249.32 34.1706C249.23 34.023 249.276 33.8293 249.427 33.7397C249.575 33.6502 249.77 33.6962 249.86 33.8463C250.21 34.4224 251.238 34.9428 252.195 35.0276C252.628 35.0663 253.43 35.0469 253.938 34.4756C254.052 34.3449 254.251 34.3352 254.383 34.449C254.514 34.5628 254.524 34.7613 254.409 34.892C253.957 35.3979 253.282 35.6691 252.477 35.6691V35.6666Z" fill="#EA5A3D"/>
  <g opacity="0.25">
  <path d="M256.471 32.6382C256.971 34.4779 257.922 35.2259 259.29 34.858C260.658 34.49 261.101 33.3644 260.602 31.5246C260.102 29.6849 259.151 28.9369 257.783 29.3048C256.415 29.6728 255.972 30.7984 256.471 32.6382Z" fill="#F44C44"/>
  </g>
  <path d="M252.8 30.8955C252.713 30.8955 252.625 30.8591 252.562 30.7865C252.506 30.7236 251.187 29.2058 250.593 28.1528C250.508 28.0027 250.562 27.8115 250.715 27.7267C250.866 27.642 251.058 27.6953 251.143 27.8478C251.704 28.8451 253.024 30.3629 253.039 30.3774C253.153 30.5081 253.138 30.7066 253.007 30.8204C252.946 30.8713 252.873 30.8979 252.8 30.8979V30.8955Z" fill="#EA5A3D"/>
  <path d="M253.163 28.8087C254.013 28.8087 254.706 29.4961 254.706 30.3458C254.706 30.6145 254.631 30.8638 254.509 31.0841L255.877 32.9408C256.077 33.2119 256.018 33.592 255.746 33.7929C255.637 33.8728 255.51 33.9115 255.384 33.9115C255.197 33.9115 255.01 33.8244 254.891 33.6622L253.542 31.8321C253.42 31.8636 253.294 31.883 253.165 31.883C252.314 31.883 251.622 31.1955 251.622 30.3458C251.622 29.4961 252.312 28.8087 253.165 28.8087H253.163Z" fill="white"/>
  <path d="M248.474 20.7259C245.764 21.0382 242.685 19.593 240.21 15.9765C237.736 12.3599 236.577 7.95423 230.537 5.70054C224.497 3.44927 218.717 6.09996 216.229 8.00264C213.74 9.90533 212.235 11.2343 209.581 10.6025C206.927 9.97069 205.034 1.97264 198.082 0.377385C192.006 -1.01937 188.093 3.25078 187.191 5.09052C186.29 6.93027 184.396 6.81649 182.569 5.60371C180.741 4.39093 177.464 -0.377878 170.951 0.0239608C164.435 0.423379 162.774 4.34736 161.771 6.572C161.032 8.2084 159.53 9.59305 157.714 8.22293C155.896 6.8528 152.819 2.7279 147.054 3.8027C141.289 4.8775 139.865 10.1547 141.15 15.1196C142.436 20.0844 146.553 22.6964 150.517 22.6165C154.482 22.5366 156.548 17.1409 159.228 17.3006C161.909 17.4604 163.365 24.8799 171.814 25.226C181.137 25.6085 182.058 16.7681 185.048 17.1045C188.035 17.441 187.524 27.2667 196.641 28.3609C205.517 29.4284 207.262 18.9007 211.039 19.2832C214.816 19.6657 213.713 28.8256 223.036 31.7475C232.36 34.6693 241 26.5889 244.554 28.0631L248.477 20.7284L248.474 20.7259Z" fill="#372E3E"/>
  <path d="M241.047 46.768C241.047 46.768 231.828 42.9868 207.829 44.202C183.833 45.4172 172.307 47.9832 161.732 57.0294C151.157 66.0756 146.818 79.7139 143.158 88.3559C139.498 96.9979 138.683 103.209 136.379 107.666C134.075 112.122 131.635 120.225 132.989 124.139C134.345 128.056 136.445 129.675 139.597 129.777C139.597 129.777 141.833 132.309 143.97 133.12C146.106 133.931 148.646 132.309 148.646 132.309C148.646 132.309 150.783 135.652 155.155 135.144C159.527 134.638 161.153 131.701 161.153 131.701C161.153 131.701 167.254 130.384 167.052 125.422C166.848 120.459 165.12 117.625 165.426 113.878C165.733 110.13 170.917 100.307 173.357 95.7488C175.797 91.1905 182.306 79.7478 183.526 76.1022C183.526 76.1022 193.999 76.1022 203.76 76.2039C213.521 76.3056 222.47 75.7996 227.555 75.2913C232.639 74.7854 241.759 71.636 243.927 64.0495C247.283 52.3017 241.047 46.7656 241.047 46.7656V46.768Z" fill="#F09060"/>
  <path d="M156.378 132.152C156.297 132.152 156.217 132.12 156.154 132.06C156.03 131.936 156.03 131.738 156.154 131.617C157.651 130.125 159.207 125.497 159.805 123.575C159.856 123.41 160.033 123.318 160.198 123.369C160.364 123.42 160.456 123.597 160.405 123.761C159.644 126.201 158.137 130.525 156.599 132.06C156.538 132.12 156.458 132.152 156.375 132.152H156.378Z" fill="#EA5A3D"/>
  <path d="M160.22 132.14C158.713 132.14 157.199 131.417 157.121 131.381C156.966 131.305 156.9 131.116 156.975 130.961C157.051 130.806 157.24 130.74 157.396 130.815C157.418 130.825 159.547 131.839 161.071 131.405C161.238 131.356 161.411 131.453 161.46 131.621C161.508 131.788 161.411 131.96 161.243 132.009C160.915 132.103 160.568 132.14 160.22 132.14Z" fill="#EA5A3D"/>
  <path d="M183.526 76.417C183.478 76.417 183.427 76.4049 183.38 76.3807C183.227 76.3008 183.169 76.1096 183.249 75.9571C185.147 72.372 187.277 66.4364 187.298 66.3783C187.357 66.2161 187.537 66.1289 187.699 66.187C187.862 66.2451 187.95 66.4243 187.891 66.5865C187.87 66.647 185.726 72.6262 183.806 76.25C183.75 76.3565 183.641 76.417 183.526 76.417Z" fill="#EA5A3D"/>
  <path opacity="0.4" d="M156.596 62.3115C158.13 60.4403 159.829 58.661 161.734 57.0295C165.55 53.7663 169.492 51.348 174.096 49.5301C176.257 53.6574 174.509 57.6443 168.887 61.3698C163.681 64.8193 159.552 65.1243 156.596 62.3091V62.3115Z" fill="#F44C44"/>
  <path d="M168.613 104.664C165.733 103.652 162.444 103.079 160.818 102.336C159.192 101.592 159.768 100.917 159.158 99.6341C158.548 98.3511 156.176 97.407 153.599 96.6638C151.023 95.9207 148.549 96.2596 147.533 97.407C146.517 98.5544 145.941 98.2518 144.244 97.9129C142.55 97.5764 140.244 96.3274 140.244 96.3274C140.244 96.3274 139.126 96.3274 138.278 99.0628C137.439 101.772 137.228 103.214 137.971 103.89C138.717 104.565 142.92 106.083 143.87 106.557C144.818 107.029 144.92 108.143 147.227 109.089C149.531 110.036 153.361 110.98 155.123 111.048C156.885 111.116 157.056 110.44 159.09 111.048C161.124 111.655 164.175 112.803 165.463 113.006C166.751 113.209 167.699 111.149 168.377 109.327C169.055 107.504 169.529 104.989 168.615 104.669L168.613 104.664Z" fill="#00AFCA"/>
  <path d="M154.107 97.4046C152.005 96.7486 148.989 96.4581 148.109 97.8089C147.227 99.1596 146.313 101.522 145.907 103.042C145.501 104.563 145.399 106.993 146.179 107.802C146.959 108.613 149.975 109.387 151.533 109.794C153.091 110.198 154.788 110.639 155.974 110.266C157.16 109.895 157.974 107.397 158.482 105.371C158.99 103.345 159.262 100.881 158.516 99.7672C157.77 98.6537 155.838 97.9444 154.11 97.4046H154.107Z" fill="#372E3E"/>
  <path d="M151.779 107.913L151.874 106.698C152.039 106.71 152.209 106.712 152.372 106.698L152.472 107.913C152.36 107.923 152.246 107.925 152.131 107.925C152.017 107.925 151.896 107.92 151.779 107.91V107.913ZM152.87 106.623C153.031 106.586 153.191 106.533 153.344 106.47L153.811 107.596C153.597 107.683 153.373 107.755 153.15 107.806L152.87 106.62V106.623ZM150.435 107.591L150.904 106.468C151.057 106.531 151.217 106.584 151.378 106.62L151.094 107.804C150.87 107.751 150.649 107.678 150.432 107.591H150.435ZM153.791 106.247C153.932 106.163 154.068 106.063 154.2 105.954L154.99 106.884C154.812 107.032 154.625 107.167 154.431 107.286L153.794 106.245L153.791 106.247ZM149.261 106.874L150.056 105.95C150.182 106.059 150.318 106.158 150.459 106.243L149.818 107.281C149.623 107.162 149.433 107.024 149.259 106.874H149.261ZM154.552 105.606C154.662 105.48 154.761 105.344 154.849 105.204L155.889 105.846C155.767 106.039 155.631 106.226 155.481 106.4L154.555 105.606H154.552ZM148.364 105.833L149.407 105.194C149.494 105.337 149.594 105.473 149.701 105.599L148.77 106.39C148.622 106.216 148.486 106.03 148.364 105.833ZM155.077 104.763C155.143 104.611 155.194 104.451 155.235 104.291L156.424 104.58C156.37 104.802 156.295 105.022 156.207 105.236L155.08 104.763H155.077ZM147.834 104.565L149.023 104.282C149.062 104.442 149.113 104.601 149.178 104.754L148.048 105.223C147.961 105.01 147.888 104.79 147.834 104.567V104.565ZM155.315 103.8C155.323 103.71 155.327 103.623 155.327 103.531C155.327 103.454 155.325 103.376 155.32 103.301L156.54 103.214C156.548 103.318 156.552 103.425 156.552 103.531C156.552 103.657 156.548 103.781 156.538 103.902L155.32 103.8H155.315ZM155.092 102.336L156.224 101.876C156.312 102.089 156.382 102.311 156.433 102.534L155.242 102.81C155.206 102.65 155.155 102.49 155.092 102.336ZM154.576 101.483L155.515 100.702C155.663 100.878 155.799 101.067 155.916 101.261L154.868 101.89C154.783 101.75 154.686 101.612 154.576 101.483ZM153.823 100.832L154.472 99.7986C154.666 99.9196 154.854 100.058 155.026 100.208L154.224 101.128C154.098 101.019 153.962 100.917 153.823 100.83V100.832ZM152.904 100.445L153.203 99.2636C153.427 99.3193 153.648 99.3943 153.859 99.4815L153.381 100.602C153.228 100.537 153.067 100.484 152.904 100.442V100.445Z" fill="#FFECE3"/>
  <path d="M218.737 87.7289C225.158 88.3074 234.839 93.0956 238.968 97.097C240.062 94.8627 242.05 92.609 244.165 89.709C244.165 89.709 241.319 85.7899 235.216 82.1467C229.113 78.4987 223.826 78.3655 223.826 78.3655C223.826 78.3655 221.52 83.2263 219.354 86.734C219.165 87.0438 218.956 87.373 218.737 87.7265V87.7289Z" fill="#F09060"/>
  <path d="M250.717 73.2798L250.353 72.6504C254.672 70.174 253.94 66.7317 252.63 62.8174L253.323 62.5875C254.63 66.4921 255.505 70.5347 250.717 73.2798Z" fill="#372E3E"/>
  <path d="M235.221 106.223C235.199 106.223 235.177 106.223 235.155 106.216C228.335 104.754 220.487 103.936 220.407 103.929C220.234 103.912 220.108 103.757 220.125 103.585C220.142 103.413 220.302 103.287 220.47 103.306C220.548 103.314 228.43 104.134 235.286 105.606C235.456 105.642 235.563 105.809 235.527 105.979C235.495 106.127 235.364 106.226 235.221 106.226V106.223Z" fill="black"/>
  <path d="M225.319 147.545C225.294 147.545 225.27 147.543 225.243 147.535C218.936 146.017 211.684 144.151 205.44 141.203C198.099 137.736 193.815 133.553 192.342 128.414C192.293 128.247 192.39 128.075 192.558 128.027C192.726 127.978 192.898 128.075 192.947 128.242C194.369 133.2 198.544 137.252 205.709 140.636C211.9 143.558 219.114 145.415 225.392 146.925C225.559 146.966 225.664 147.136 225.623 147.303C225.588 147.446 225.46 147.543 225.316 147.543L225.319 147.545Z" fill="black"/>
  <path d="M266.941 154.836C266.834 154.836 266.73 154.78 266.671 154.683C266.581 154.536 266.63 154.342 266.781 154.253C275.387 149.14 284.468 144.09 292.542 143.41C292.719 143.396 292.867 143.524 292.882 143.696C292.896 143.868 292.768 144.02 292.595 144.035C284.655 144.705 275.273 149.939 267.104 154.792C267.053 154.821 266.997 154.836 266.944 154.836H266.941Z" fill="#EA5A3D"/>
  <path d="M53.2706 263.091C53.9487 260.12 55.3609 259.827 62.8978 257.283C71.3025 254.449 73.6091 249.486 76.4552 250.295C78.2027 250.793 78.6475 251.556 78.7302 252.071L78.492 252.287C78.492 252.287 79.3062 254.584 77.8139 259.847C76.3215 265.114 73.6115 272.815 76.3215 277.944C79.0315 283.078 89.3344 284.967 95.8433 283.347C100.204 282.263 101.941 283.173 102.617 283.894L102.885 284.245C102.994 284.429 103.028 284.56 103.028 284.56C103.04 284.538 103.06 284.514 103.072 284.492L103.436 284.969C104.929 287.402 100.996 289.561 98.8256 294.962C96.6551 300.362 93.6729 316.027 93.6729 325.748C93.6729 331.745 94.351 341.546 91.6386 344.519C88.9261 347.489 85.5842 346.479 84.3179 344.248C80.7936 338.036 74.0879 322.718 69.1321 303.872C63.1676 281.188 52.5925 266.063 53.2682 263.093L53.2706 263.091Z" fill="#00AFCA"/>
  <path d="M82.2761 336.69C82.2761 336.69 76.2265 340.868 77.8355 343.059C79.4445 345.247 82.332 344.608 85.6277 341.577L82.2761 336.69ZM80.7011 330.229C80.7011 330.229 74.0294 334.949 72.1652 331.577C70.301 328.205 76.2168 326.017 77.7164 324.867L80.7011 330.229ZM77.0772 319.454C77.0772 319.454 69.0395 323.335 67.7854 319.585C66.5313 315.838 73.0256 313.771 74.812 313.306L77.0748 319.452L77.0772 319.454ZM71.8759 308.43C71.8759 308.43 65.4716 310.42 64.4823 307.69C63.4956 304.959 64.8712 303.134 69.3336 301.432L71.8759 308.43Z" fill="black"/>
  <path d="M53.2706 263.09C53.6133 261.587 54.148 260.769 55.5674 259.997C58.8777 267.571 63.5297 276.775 67.2362 286.586C72.3889 300.224 74.4208 313.187 79.8457 326.826C83.9897 337.244 87.6938 343.311 89.558 346.027C87.4046 346.91 85.273 345.925 84.3203 344.245C80.796 338.033 74.0903 322.715 69.1345 303.87C63.17 281.185 52.5949 266.061 53.2706 263.09Z" fill="#372E3E"/>
  <path d="M97.4013 298.208C97.3405 298.208 97.2798 298.191 97.2263 298.155C93.5708 295.729 88.0269 295.821 82.5825 296.281C77.8771 296.68 70.8918 298.084 70.8237 298.099C70.656 298.135 70.4883 298.024 70.4519 297.855C70.4179 297.685 70.5272 297.52 70.6974 297.484C70.7678 297.47 77.7871 296.058 82.5291 295.657C88.09 295.184 93.7604 295.1 97.5763 297.632C97.7221 297.729 97.761 297.922 97.6638 298.068C97.603 298.157 97.5034 298.208 97.4013 298.208Z" fill="black"/>
  <path d="M73.8083 307.525C73.6697 307.525 73.5433 307.433 73.5045 307.293C73.4583 307.126 73.5579 306.954 73.7256 306.908C79.3571 305.388 91.0308 304.373 95.7898 306.312C95.9502 306.378 96.0279 306.562 95.9623 306.722C95.8967 306.881 95.712 306.959 95.5516 306.893C92.0541 305.47 81.6126 305.429 73.8909 307.513C73.8642 307.52 73.835 307.523 73.8083 307.523V307.525Z" fill="black"/>
  <path d="M102.585 288.588C102.474 288.588 102.364 288.527 102.308 288.423C101.198 286.361 99.924 286.513 96.8446 286.881C96.0377 286.978 95.1238 287.087 94.0714 287.172C89.2225 287.559 81.897 288.14 76.1488 283.248C71.4021 279.208 70.4736 272.543 73.3051 262.87C75.4002 255.719 75.7186 253.35 73.7912 251.432C73.6673 251.309 73.6673 251.11 73.7912 250.989C73.9128 250.866 74.1145 250.866 74.236 250.989C76.3919 253.137 76.0832 255.62 73.9079 263.047C71.1517 272.459 72.017 278.912 76.5547 282.773C82.1036 287.496 89.2736 286.925 94.0179 286.547C95.0582 286.465 95.9672 286.356 96.7668 286.259C99.8511 285.891 101.548 285.688 102.863 288.128C102.945 288.281 102.887 288.472 102.734 288.552C102.688 288.576 102.636 288.588 102.585 288.588Z" fill="black"/>
  <path d="M200.333 190.474C201.208 187.554 202.635 187.356 210.325 185.318C218.902 183.045 221.634 177.997 224.32 179.242C226.641 180.319 226.876 183.708 225.037 188.862C223.197 194.02 219.981 201.522 222.341 206.819C224.701 212.12 234.858 214.686 241.459 213.5C245.883 212.706 247.555 213.73 248.182 214.492L248.428 214.86C248.525 215.051 248.552 215.185 248.552 215.185C248.566 215.165 248.586 215.141 248.6 215.119L248.931 215.618C250.258 218.145 246.189 220.038 243.666 225.284C241.144 230.529 237.121 245.962 236.475 255.664C236.076 261.648 236.098 271.473 233.193 274.257C230.289 277.041 227.02 275.814 225.907 273.504C222.803 267.073 217.135 251.345 213.446 232.214C209.005 209.184 199.46 193.396 200.335 190.476L200.333 190.474Z" fill="#00AFCA"/>
  <path d="M224.371 265.828C224.371 265.828 218.056 269.597 219.515 271.89C220.975 274.18 223.897 273.732 227.39 270.926L224.371 265.828ZM223.231 259.278C223.231 259.278 216.26 263.546 214.625 260.06C212.989 256.571 219.038 254.78 220.611 253.732L223.233 259.28L223.231 259.278ZM220.334 248.288C220.334 248.288 212.056 251.628 211.054 247.806C210.053 243.984 216.671 242.35 218.484 242.006L220.334 248.29V248.288ZM215.879 236.944C215.879 236.944 209.355 238.506 208.551 235.717C207.746 232.926 209.243 231.197 213.808 229.793L215.876 236.944H215.879Z" fill="black"/>
  <path d="M200.333 190.474C200.776 188.995 201.361 188.215 202.829 187.54C205.627 195.318 209.657 204.809 212.7 214.841C216.931 228.789 218.095 241.858 222.599 255.826C226.038 266.496 229.332 272.793 231.011 275.627C228.804 276.366 226.743 275.242 225.905 273.502C222.801 267.07 217.133 251.343 213.443 232.212C209.003 209.181 199.458 193.393 200.333 190.474Z" fill="#372E3E"/>
  <path d="M242.048 228.433C241.98 228.433 241.914 228.411 241.856 228.368C238.371 225.705 232.834 225.429 227.368 225.531C222.645 225.618 215.585 226.557 215.514 226.567C215.342 226.589 215.184 226.47 215.159 226.298C215.135 226.126 215.257 225.969 215.429 225.945C215.5 225.935 222.597 224.991 227.356 224.904C232.936 224.802 238.599 225.09 242.238 227.869C242.376 227.976 242.4 228.172 242.296 228.31C242.235 228.39 242.14 228.433 242.046 228.433H242.048Z" fill="black"/>
  <path d="M239.741 237.007C239.695 237.007 239.649 236.998 239.603 236.976C236.21 235.322 225.793 234.591 217.949 236.162C217.777 236.196 217.614 236.087 217.58 235.918C217.546 235.749 217.655 235.584 217.826 235.55C223.547 234.405 235.26 234.165 239.88 236.414C240.035 236.489 240.101 236.678 240.023 236.833C239.97 236.944 239.858 237.01 239.741 237.01V237.007Z" fill="black"/>
  <path d="M247.864 219.174C247.745 219.174 247.631 219.106 247.577 218.99C246.607 216.857 245.324 216.925 242.228 217.09C241.416 217.133 240.495 217.182 239.44 217.196C234.576 217.261 227.227 217.358 221.819 212.098C217.351 207.753 216.868 201.04 220.341 191.578C222.908 184.579 223.382 182.239 221.588 180.195C221.474 180.065 221.486 179.866 221.617 179.752C221.748 179.639 221.948 179.651 222.062 179.781C224.069 182.064 223.598 184.524 220.932 191.791C217.553 200.999 217.988 207.494 222.259 211.648C227.482 216.729 234.674 216.63 239.433 216.569C240.475 216.555 241.389 216.506 242.196 216.465C245.297 216.3 247.006 216.211 248.153 218.733C248.224 218.891 248.153 219.077 247.995 219.147C247.954 219.167 247.91 219.176 247.866 219.176L247.864 219.174Z" fill="black"/>
  <path d="M110.674 222.321C117.035 236.032 129.652 247.988 139.748 252.8C157.931 236.24 183.035 206.38 193.596 192.87C200.562 183.96 211.46 167.983 218.492 157.494C202.756 154.565 188.837 145.1 182.851 139.745C180.277 143.18 176.699 147.792 172.307 153.035C162.816 164.383 137.602 194.63 122.416 210.563C119.023 214.119 114.95 218.184 110.674 222.318V222.321Z" fill="#F09060"/>
  <path opacity="0.4" d="M177.593 212.367C170.866 220.273 163.207 228.949 155.697 236.92C151.242 231.691 152.411 225.274 159.187 217.852C165.837 210.571 172.027 208.733 177.596 212.369L177.593 212.367Z" fill="#F44C44"/>
  <path d="M76.3191 277.944C79.0291 283.078 89.332 284.966 95.8409 283.347C102.355 281.727 103.028 284.56 103.028 284.56C104.931 281.318 119.303 270.788 137.604 254.72C137.77 254.579 137.928 254.434 138.093 254.286C138.637 253.805 139.187 253.306 139.75 252.8C129.654 247.988 117.037 236.032 110.677 222.321C110.487 222.502 110.305 222.686 110.115 222.868C95.3888 237.126 78.492 252.287 78.492 252.287C78.492 252.287 79.3062 254.584 77.8138 259.847C76.3215 265.114 73.6115 272.814 76.3215 277.944H76.3191Z" fill="#EA5A3D"/>
  <path d="M221.96 209.585C223.586 213.776 230.712 216.876 236.404 215.257C242.099 213.638 246.165 214.647 246.165 214.647C246.709 213.836 253.889 207.46 259.992 204.219C263.74 202.226 274.028 196.453 284.003 191.757L286.02 190.801C277.949 184.838 265.575 166.821 262.957 157.063L225.994 180.854C226.539 183.151 222.912 187.474 220.742 194.492C218.576 201.515 220.331 205.4 221.96 209.585Z" fill="#EA5A3D"/>
  </svg>
  