<svg width="339" height="517" viewBox="0 0 339 517" fill="none" xmlns="http://www.w3.org/2000/svg">
  <path fill-rule="evenodd" clip-rule="evenodd" d="M81.9565 376.086C81.2213 377.075 80.5427 377.642 79.9627 377.886C79.6807 378.004 79.5266 378.377 79.641 378.669C79.7554 378.961 80.1157 379.12 80.3977 379.002C81.1239 378.697 81.8058 378.123 82.4912 377.295C83.5685 378.591 84.6673 379.276 85.8172 379.236C86.9206 379.197 87.8846 378.494 88.7445 377.361C89.602 378.494 90.5672 379.197 91.6717 379.236C92.8227 379.276 93.9192 378.591 94.9977 377.295C95.5574 377.97 96.1192 378.473 96.7015 378.805C97.4435 379.228 98.233 379.352 98.9762 379.142C99.2957 379.088 99.5279 378.718 99.444 378.394C99.3602 378.071 98.9796 377.871 98.6771 377.989C98.2274 378.116 97.7879 378.059 97.2543 377.755C96.7401 377.462 96.1566 376.914 95.5325 376.076C95.1994 375.592 94.761 375.666 94.4903 376.048C93.396 377.526 92.4603 378.062 91.7081 378.036C90.9604 378.01 90.1425 377.415 89.2884 376.095C88.9621 375.612 88.5011 375.644 88.2009 376.114C87.3456 377.423 86.5232 378.01 85.7812 378.036C85.0358 378.062 84.1103 377.531 83.0262 376.076C82.7316 375.625 82.2774 375.644 81.9568 376.086L81.9565 376.086Z" fill="#00AFCA"/>
  <path fill-rule="evenodd" clip-rule="evenodd" d="M79.845 380.989C78.8538 382.017 77.9305 382.623 77.09 382.892C76.7841 382.971 76.5814 383.342 76.6754 383.653C76.7694 383.965 77.1399 384.151 77.4344 384.036C78.3927 383.729 79.3477 383.12 80.3072 382.198C81.764 383.593 83.2208 384.298 84.6572 384.261C86.0551 384.223 87.3419 383.486 88.5087 382.245C89.6743 383.483 90.9544 384.225 92.3512 384.261C93.7876 384.298 95.2444 383.593 96.7012 382.198C98.4446 383.858 100.2 384.53 101.867 384.158C102.175 384.104 102.402 383.756 102.337 383.439C102.271 383.123 101.924 382.904 101.622 382.986C100.307 383.28 98.8568 382.741 97.145 380.97C96.8459 380.672 96.5638 380.675 96.2387 380.998C94.7966 382.49 93.5256 383.091 92.3872 383.061C91.2533 383.03 90.1307 382.374 88.9977 381.036C88.7009 380.654 88.3271 380.676 88.0008 381.045C86.8714 382.377 85.7612 383.03 84.6296 383.061C83.4956 383.091 82.2212 382.495 80.7871 381.017C80.4325 380.661 80.1436 380.676 79.8446 380.989L79.845 380.989Z" fill="#00AFCA"/>
  <path fill-rule="evenodd" clip-rule="evenodd" d="M316.196 331.086C315.436 332.075 314.734 332.642 314.134 332.886C313.842 333.004 313.683 333.377 313.801 333.669C313.919 333.961 314.292 334.12 314.584 334.002C315.335 333.697 316.041 333.123 316.75 332.295C317.864 333.591 319.001 334.276 320.19 334.236C321.332 334.197 322.329 333.494 323.218 332.361C324.106 333.494 325.104 334.197 326.247 334.236C327.437 334.276 328.572 333.591 329.687 332.295C330.266 332.97 330.848 333.473 331.45 333.805C332.217 334.228 333.034 334.352 333.803 334.142C334.133 334.088 334.374 333.718 334.287 333.394C334.2 333.071 333.806 332.871 333.494 332.989C333.028 333.116 332.574 333.059 332.022 332.755C331.49 332.462 330.886 331.914 330.241 331.076C329.896 330.592 329.442 330.666 329.162 331.048C328.03 332.526 327.062 333.062 326.284 333.036C325.511 333.01 324.665 332.415 323.781 331.095C323.444 330.612 322.967 330.644 322.656 331.114C321.771 332.423 320.921 333.01 320.153 333.036C319.382 333.062 318.424 332.531 317.303 331.076C316.998 330.625 316.528 330.644 316.197 331.086L316.196 331.086Z" fill="#00AFCA"/>
  <path fill-rule="evenodd" clip-rule="evenodd" d="M314.012 335.989C312.987 337.017 312.032 337.623 311.162 337.892C310.846 337.971 310.636 338.342 310.733 338.653C310.83 338.965 311.214 339.151 311.518 339.036C312.51 338.729 313.498 338.12 314.49 337.198C315.997 338.593 317.504 339.298 318.99 339.261C320.436 339.223 321.768 338.486 322.975 337.245C324.18 338.483 325.505 339.225 326.95 339.261C328.435 339.298 329.943 338.593 331.45 337.198C333.253 338.858 335.069 339.53 336.793 339.158C337.112 339.104 337.347 338.756 337.279 338.439C337.211 338.123 336.853 337.904 336.54 337.986C335.179 338.28 333.679 337.741 331.909 335.97C331.599 335.672 331.307 335.675 330.971 335.998C329.479 337.49 328.164 338.091 326.987 338.061C325.814 338.03 324.652 337.374 323.48 336.036C323.173 335.654 322.787 335.676 322.449 336.045C321.281 337.377 320.132 338.03 318.962 338.061C317.789 338.091 316.47 337.495 314.987 336.017C314.62 335.661 314.321 335.676 314.012 335.989L314.012 335.989Z" fill="#00AFCA"/>
  <path fill-rule="evenodd" clip-rule="evenodd" d="M252.196 223.086C251.436 224.075 250.734 224.642 250.134 224.886C249.842 225.004 249.683 225.377 249.801 225.669C249.919 225.961 250.292 226.12 250.584 226.002C251.335 225.697 252.041 225.123 252.75 224.295C253.864 225.591 255.001 226.276 256.19 226.236C257.332 226.197 258.329 225.494 259.218 224.361C260.106 225.494 261.104 226.197 262.247 226.236C263.437 226.276 264.572 225.591 265.687 224.295C266.266 224.97 266.848 225.473 267.45 225.805C268.217 226.228 269.034 226.352 269.803 226.142C270.133 226.088 270.374 225.718 270.287 225.394C270.2 225.071 269.806 224.871 269.494 224.989C269.028 225.116 268.574 225.059 268.022 224.755C267.49 224.462 266.886 223.914 266.241 223.076C265.896 222.593 265.442 222.666 265.162 223.048C264.03 224.526 263.062 225.062 262.284 225.036C261.511 225.01 260.665 224.415 259.781 223.095C259.444 222.612 258.967 222.644 258.656 223.114C257.771 224.423 256.921 225.01 256.153 225.036C255.382 225.062 254.424 224.531 253.303 223.076C252.998 222.625 252.528 222.644 252.197 223.086L252.196 223.086Z" fill="#00AFCA"/>
  <path fill-rule="evenodd" clip-rule="evenodd" d="M250.012 227.989C248.987 229.017 248.032 229.623 247.162 229.892C246.846 229.971 246.636 230.342 246.733 230.653C246.83 230.965 247.214 231.151 247.518 231.036C248.51 230.729 249.498 230.12 250.49 229.198C251.997 230.593 253.504 231.298 254.99 231.261C256.436 231.223 257.768 230.486 258.975 229.245C260.18 230.483 261.505 231.225 262.95 231.261C264.435 231.298 265.943 230.593 267.45 229.198C269.253 230.858 271.069 231.531 272.793 231.158C273.112 231.104 273.347 230.756 273.279 230.439C273.211 230.123 272.853 229.904 272.54 229.986C271.179 230.28 269.679 229.741 267.909 227.97C267.599 227.672 267.307 227.675 266.971 227.998C265.479 229.49 264.164 230.091 262.987 230.061C261.814 230.031 260.652 229.374 259.48 228.036C259.173 227.654 258.787 227.676 258.449 228.045C257.281 229.377 256.132 230.031 254.962 230.061C253.789 230.091 252.47 229.495 250.987 228.017C250.62 227.661 250.321 227.676 250.012 227.989L250.012 227.989Z" fill="#00AFCA"/>
  <path fill-rule="evenodd" clip-rule="evenodd" d="M16.1964 189.086C15.4358 190.075 14.7339 190.642 14.1339 190.886C13.8421 191.004 13.6827 191.377 13.8011 191.669C13.9194 191.961 14.2921 192.12 14.5839 192.002C15.3351 191.697 16.0406 191.123 16.7495 190.295C17.864 191.591 19.0007 192.276 20.1902 192.236C21.3317 192.197 22.3289 191.494 23.2184 190.361C24.1055 191.494 25.104 192.197 26.2466 192.236C27.4373 192.276 28.5716 191.591 29.6873 190.295C30.2663 190.97 30.8475 191.473 31.4498 191.805C32.2174 192.228 33.0342 192.352 33.803 192.142C34.1335 192.088 34.3737 191.718 34.287 191.394C34.2003 191.071 33.8065 190.871 33.4936 190.989C33.0284 191.116 32.5737 191.059 32.0218 190.755C31.4897 190.462 30.8862 189.914 30.2405 189.076C29.896 188.593 29.4425 188.666 29.1624 189.048C28.0304 190.526 27.0624 191.062 26.2842 191.036C25.5108 191.01 24.6647 190.415 23.7811 189.095C23.4436 188.612 22.9667 188.644 22.6561 189.114C21.7713 190.423 20.9205 191.01 20.153 191.036C19.3819 191.062 18.4244 190.531 17.303 189.076C16.9983 188.625 16.5284 188.644 16.1967 189.086L16.1964 189.086Z" fill="#00AFCA"/>
  <path fill-rule="evenodd" clip-rule="evenodd" d="M14.0121 193.989C12.9867 195.017 12.0316 195.623 11.1621 195.892C10.8457 195.971 10.6359 196.342 10.7332 196.653C10.8305 196.965 11.2137 197.151 11.5184 197.036C12.5098 196.729 13.4977 196.12 14.4902 195.198C15.9972 196.593 17.5043 197.298 18.9902 197.261C20.4363 197.223 21.7676 196.486 22.9745 195.245C24.1804 196.483 25.5046 197.225 26.9495 197.261C28.4355 197.298 29.9425 196.593 31.4495 195.198C33.253 196.858 35.0693 197.531 36.7931 197.158C37.1119 197.104 37.3474 196.756 37.2795 196.44C37.2115 196.123 36.8529 195.904 36.54 195.986C35.1795 196.28 33.6795 195.741 31.9086 193.97C31.5993 193.672 31.3074 193.675 30.9711 193.998C29.4793 195.49 28.1645 196.091 26.9868 196.061C25.8138 196.031 24.6525 195.374 23.4804 194.036C23.1734 193.654 22.7867 193.676 22.4492 194.045C21.2808 195.377 20.1324 196.031 18.9617 196.061C17.7886 196.091 16.4703 195.495 14.9867 194.017C14.6199 193.661 14.321 193.676 14.0117 193.989L14.0121 193.989Z" fill="#00AFCA"/>
  <path fill-rule="evenodd" clip-rule="evenodd" d="M237.196 497.086C236.436 498.075 235.734 498.642 235.134 498.886C234.842 499.004 234.683 499.377 234.801 499.669C234.919 499.961 235.292 500.12 235.584 500.002C236.335 499.697 237.041 499.123 237.75 498.295C238.864 499.591 240.001 500.276 241.19 500.236C242.332 500.197 243.329 499.494 244.218 498.361C245.106 499.494 246.104 500.197 247.247 500.236C248.437 500.276 249.572 499.591 250.687 498.295C251.266 498.97 251.848 499.473 252.45 499.805C253.217 500.228 254.034 500.352 254.803 500.142C255.133 500.088 255.374 499.718 255.287 499.395C255.2 499.071 254.806 498.871 254.494 498.989C254.028 499.116 253.574 499.059 253.022 498.755C252.49 498.462 251.886 497.914 251.241 497.077C250.896 496.593 250.442 496.666 250.162 497.048C249.03 498.526 248.062 499.062 247.284 499.036C246.511 499.01 245.665 498.415 244.781 497.095C244.444 496.612 243.967 496.644 243.656 497.114C242.771 498.423 241.921 499.01 241.153 499.036C240.382 499.062 239.424 498.531 238.303 497.076C237.998 496.625 237.528 496.644 237.197 497.086L237.196 497.086Z" fill="#00AFCA"/>
  <path fill-rule="evenodd" clip-rule="evenodd" d="M235.012 501.989C233.987 503.017 233.032 503.623 232.162 503.892C231.846 503.971 231.636 504.342 231.733 504.653C231.83 504.965 232.214 505.151 232.518 505.036C233.51 504.729 234.498 504.12 235.49 503.198C236.997 504.593 238.504 505.298 239.99 505.261C241.436 505.223 242.768 504.486 243.975 503.245C245.18 504.483 246.505 505.225 247.95 505.261C249.435 505.298 250.943 504.593 252.45 503.198C254.253 504.858 256.069 505.531 257.793 505.158C258.112 505.104 258.347 504.756 258.279 504.44C258.211 504.123 257.853 503.904 257.54 503.986C256.179 504.28 254.679 503.741 252.909 501.97C252.599 501.672 252.307 501.675 251.971 501.998C250.479 503.49 249.164 504.091 247.987 504.061C246.814 504.031 245.652 503.374 244.48 502.036C244.173 501.654 243.787 501.676 243.449 502.045C242.281 503.377 241.132 504.031 239.962 504.061C238.789 504.091 237.47 503.495 235.987 502.017C235.62 501.661 235.321 501.676 235.012 501.989L235.012 501.989Z" fill="#00AFCA"/>
  </svg>
  