<svg width="80" height="80" viewBox="0 0 80 80" fill="none" xmlns="http://www.w3.org/2000/svg">
  <path d="M68.828 50.828C68.6811 50.428 68.3468 50.1217 67.9342 50.0155L62.453 48.5093L54.025 37.7221C53.9312 37.6033 53.8125 37.4939 53.6781 37.4158C53.6656 37.4033 53.65 37.3877 53.625 37.3877C53.4906 37.3065 53.3437 37.2533 53.1843 37.2283H53.1312C53.0656 37.2158 52.9968 37.2158 52.9187 37.2158C52.825 37.2158 52.7468 37.244 52.6656 37.2565H52.6375H52.625C52.4781 37.2971 52.3312 37.3627 52.1968 37.4565C52.1687 37.469 52.1437 37.4971 52.1156 37.5096C52.0093 37.5908 51.9156 37.6814 51.85 37.8033L48.3437 43.0564C43.9875 28.4004 34.1189 26.894 33.6653 26.8284H33.6247C33.6122 26.8284 33.6122 26.8284 33.5966 26.8159C33.5685 26.8159 33.5434 26.8284 33.5153 26.8284C33.3809 26.8284 33.2497 26.8409 33.1278 26.8691C33.0872 26.8816 33.0341 26.8972 32.9934 26.9097C32.8872 26.9503 32.7934 27.0034 32.6997 27.0691C32.6591 27.0972 32.6341 27.1097 32.5934 27.1503C32.4872 27.2441 32.3809 27.3628 32.3122 27.4972L32.2997 27.5097V27.5222L28.7528 33.894L16.0872 45.266C15.9685 45.3723 15.8747 45.4942 15.806 45.6254L6.82757 62.4662C6.59944 62.8787 6.61507 63.3725 6.85569 63.7849C7.0932 64.2006 7.53382 64.4287 7.99945 64.4287H71.9995C72.4401 64.4287 72.8401 64.2162 73.0932 63.8568C73.3463 63.4974 73.3995 63.0443 73.2401 62.6287L68.828 50.828ZM52.4808 55.4936L55.6152 59.628L54.9214 61.7749L40.1998 61.7718L48.947 46.9846L52.4283 41.7721L54.4814 49.7314L52.347 54.1033C52.1189 54.547 52.1714 55.0936 52.4808 55.4936ZM46.387 46.0656L37.1054 61.772H31.1179L39.2243 44.4248C39.5181 43.7842 39.2774 43.0373 38.6649 42.6904L33.7993 39.9717L34.6931 29.8653C37.44 30.8809 43.6654 34.4281 46.387 46.0656ZM17.6398 47.8812L19.6398 50.7999L17.4117 53.9062C17.1304 54.3062 17.0773 54.8406 17.3054 55.278L19.2241 59.1436C19.4523 59.6092 19.9304 59.8905 20.4241 59.8905C20.6242 59.8905 20.8242 59.8498 21.0117 59.7561C21.6773 59.4217 21.9461 58.6217 21.6117 57.9686L20.0523 54.8217L22.3461 51.6092C22.6648 51.1561 22.6804 50.5436 22.3586 50.0748L19.4648 45.8342L30.7056 35.7406C30.8118 35.6468 30.9056 35.5281 30.9868 35.3937L31.615 34.2593L31.0556 40.5937C31.015 41.1125 31.2837 41.6219 31.7368 41.875L36.2837 44.4094L28.1653 61.7686L10.2277 61.7717L17.6398 47.8812ZM57.7334 61.7596L58.3741 59.7878C58.5084 59.3753 58.4272 58.9222 58.1741 58.5596L55.1085 54.519L57.096 50.4377C57.2304 50.1564 57.2679 49.8252 57.1897 49.519L55.8648 44.4002L60.2117 49.9721L59.2523 53.4908C59.1335 53.9314 59.2398 54.397 59.5461 54.7314L62.2523 57.7314C62.5179 58.0252 62.8804 58.1721 63.2398 58.1721C63.5586 58.1721 63.8804 58.0658 64.1336 57.8252C64.6804 57.3314 64.7211 56.4908 64.2273 55.9439L62.0148 53.4783L62.6148 51.3065L66.5742 52.4002L70.0804 61.7594L57.7334 61.7596Z" fill="#00AFCA"/>
  <path d="M23.0128 17.5872C20.919 15.3747 17.7846 15.559 17.6253 15.5747C16.8909 15.6278 16.3315 16.2685 16.3846 17.0029C16.4378 17.7372 17.0659 18.2841 17.8128 18.2435C17.8409 18.2435 20.7846 18.0716 21.7722 20.5497C21.9722 21.056 22.4659 21.3904 23.0128 21.3904C23.5597 21.3904 24.0534 21.056 24.2534 20.5497C25.2253 18.1091 28.0941 18.231 28.2253 18.2435C28.9722 18.2966 29.5846 17.7373 29.6378 17.0029C29.6909 16.2685 29.1315 15.631 28.3971 15.5747C28.2409 15.5591 25.1066 15.3716 23.0128 17.5872Z" fill="#372E3E"/>
  <path d="M49.028 18.2408C49.7874 18.2939 50.3874 17.7346 50.4405 17.0002C50.4936 16.2658 49.9342 15.6283 49.1998 15.572C49.0405 15.5595 45.9061 15.372 43.8123 17.5845C41.7186 15.372 38.5842 15.5563 38.4248 15.572C37.6904 15.6251 37.131 16.2658 37.1842 17.0002C37.2373 17.7345 37.8779 18.2814 38.6123 18.2408C38.6404 18.2408 41.5842 18.0689 42.5717 20.547C42.7717 21.0533 43.2654 21.3877 43.8123 21.3877C44.3592 21.3877 44.853 21.0533 45.053 20.547C46.028 18.1064 48.8811 18.2283 49.028 18.2408Z" fill="#372E3E"/>
  <path d="M48.3472 27.9592C48.3753 27.9592 51.319 27.7873 52.3066 30.2655C52.5066 30.7717 53.0003 31.1061 53.5472 31.1061C54.0941 31.1061 54.5878 30.7717 54.7878 30.2655C55.7597 27.8248 58.6285 27.9467 58.7597 27.9592C59.5191 28.0123 60.119 27.453 60.1722 26.7186C60.2253 25.9842 59.6659 25.3467 58.9315 25.2904C58.7722 25.2779 55.6378 25.0904 53.544 27.3029C51.4502 25.0904 48.3158 25.2747 48.1565 25.2904C47.4221 25.3435 46.8627 25.9842 46.9158 26.7186C46.9721 27.4654 47.6128 27.9999 48.3472 27.9592Z" fill="#372E3E"/>
  </svg>
  