<svg width="23" height="24" viewBox="0 0 23 24" fill="none" xmlns="http://www.w3.org/2000/svg">
  <path d="M7.00002 5.5247C7.00002 6.78719 5.97679 7.81041 4.7143 7.81041C3.45181 7.81041 2.42859 6.78719 2.42859 5.5247C2.42859 4.26221 3.45181 3.23898 4.7143 3.23898C5.97679 3.23898 7.00002 4.26221 7.00002 5.5247Z" fill="#101921"/>
  <path d="M7.00002 12.3818C7.00002 13.6443 5.97679 14.6676 4.7143 14.6676C3.45181 14.6676 2.42859 13.6443 2.42859 12.3818C2.42859 11.1194 3.45181 10.0961 4.7143 10.0961C5.97679 10.0961 7.00002 11.1194 7.00002 12.3818Z" fill="#101921"/>
  <path d="M7.00002 19.239C7.00002 20.5015 5.97679 21.5247 4.7143 21.5247C3.45181 21.5247 2.42859 20.5015 2.42859 19.239C2.42859 17.9765 3.45181 16.9533 4.7143 16.9533C5.97679 16.9533 7.00002 17.9765 7.00002 19.239Z" fill="#101921"/>
  <path d="M9.28577 17.5247H21.8572V20.9533H9.28577V17.5247Z" fill="#101921"/>
  <path d="M9.28577 10.6675H21.8572V14.0961H9.28577V10.6675Z" fill="#101921"/>
  <path d="M9.28577 3.81042H21.8572V7.239H9.28577V3.81042Z" fill="#101921"/>
  </svg>
  