<svg width="23" height="23" viewBox="0 0 23 23" fill="none" xmlns="http://www.w3.org/2000/svg">
  <g clip-path="url(#clip0_233_709)">
  <path d="M9.34376 0.682835C6.52994 0.680139 3.89023 2.04577 2.26505 4.34306C0.640679 6.64036 0.232797 9.58453 1.17255 12.2367C2.11321 14.8888 4.28284 16.9192 6.99178 17.6812C9.70049 18.4431 12.6107 17.8411 14.7957 16.0676L20.7828 22.0548L22.055 20.7826L16.0679 14.7955C17.4514 13.0938 18.137 10.9294 17.986 8.74093C17.8351 6.55248 16.8594 4.50295 15.2548 3.00703C13.6501 1.51113 11.538 0.680121 9.34399 0.682881L9.34376 0.682835ZM9.34376 16.2078C7.52352 16.2078 5.77692 15.4846 4.4903 14.1971C3.20283 12.9106 2.4796 11.1639 2.4796 9.34367C2.4796 7.52345 3.20283 5.77683 4.4903 4.49021C5.77688 3.20274 7.52354 2.4795 9.34376 2.4795C11.164 2.4795 12.9106 3.20274 14.1972 4.49021C15.4847 5.77678 16.2079 7.52345 16.2079 9.34367C16.2061 11.1639 15.482 12.9087 14.1954 14.1953C12.9089 15.4819 11.164 16.206 9.34376 16.2078Z" fill="#101921"/>
  <path d="M5.89377 8.44537H12.7938V10.2422H5.89377V8.44537Z" fill="#101921"/>
  </g>
  <defs>
  <clipPath id="clip0_233_709">
  <rect width="23" height="23" fill="white"/>
  </clipPath>
  </defs>
  </svg>
  